<mxfile host="app.diagrams.net" modified="2023-09-18T13:11:12.268Z" agent="Mozilla/5.0 (Windows NT 10.0; Win64; x64) AppleWebKit/537.36 (KHTML, like Gecko) Chrome/117.0.0.0 Safari/537.36 Edg/117.0.2045.31" etag="HWcNXhDIek2Ue33kkFrz" version="21.7.5" type="github">
  <diagram name="Page-1" id="JbOxyVQv8GKInkz3aqq6">
    <mxGraphModel dx="2586" dy="1185" grid="1" gridSize="10" guides="1" tooltips="1" connect="1" arrows="1" fold="1" page="0" pageScale="1" pageWidth="827" pageHeight="1169" math="0" shadow="0">
      <root>
        <mxCell id="0" />
        <mxCell id="1" parent="0" />
        <mxCell id="lfWD4oRQ2sTLvUU-yB0J-35" value="" style="edgeStyle=orthogonalEdgeStyle;rounded=0;sketch=1;hachureGap=4;jiggle=2;curveFitting=1;orthogonalLoop=1;jettySize=auto;html=1;strokeColor=#A8201A;fontFamily=Architects Daughter;fontSource=https%3A%2F%2Ffonts.googleapis.com%2Fcss%3Ffamily%3DArchitects%2BDaughter;fontSize=16;fontColor=#143642;fillColor=#FAE5C7;" edge="1" parent="1" source="lfWD4oRQ2sTLvUU-yB0J-2" target="lfWD4oRQ2sTLvUU-yB0J-34">
          <mxGeometry relative="1" as="geometry" />
        </mxCell>
        <mxCell id="lfWD4oRQ2sTLvUU-yB0J-2" value="Login" style="rounded=1;whiteSpace=wrap;html=1;hachureGap=4;fontFamily=Architects Daughter;fontSource=https%3A%2F%2Ffonts.googleapis.com%2Fcss%3Ffamily%3DArchitects%2BDaughter;fontSize=20;sketch=1;curveFitting=1;jiggle=2;labelBackgroundColor=none;fillColor=#FAE5C7;strokeColor=#0F8B8D;fontColor=#143642;" vertex="1" parent="1">
          <mxGeometry x="40" y="240" width="120" height="60" as="geometry" />
        </mxCell>
        <mxCell id="lfWD4oRQ2sTLvUU-yB0J-49" style="edgeStyle=orthogonalEdgeStyle;rounded=0;sketch=1;hachureGap=4;jiggle=2;curveFitting=1;orthogonalLoop=1;jettySize=auto;html=1;exitX=1;exitY=0.5;exitDx=0;exitDy=0;strokeColor=#A8201A;fontFamily=Architects Daughter;fontSource=https%3A%2F%2Ffonts.googleapis.com%2Fcss%3Ffamily%3DArchitects%2BDaughter;fontSize=16;fontColor=#143642;fillColor=#FAE5C7;" edge="1" parent="1" source="lfWD4oRQ2sTLvUU-yB0J-3" target="lfWD4oRQ2sTLvUU-yB0J-38">
          <mxGeometry relative="1" as="geometry" />
        </mxCell>
        <mxCell id="lfWD4oRQ2sTLvUU-yB0J-3" value="Free Credits" style="rounded=1;whiteSpace=wrap;html=1;hachureGap=4;fontFamily=Architects Daughter;fontSource=https%3A%2F%2Ffonts.googleapis.com%2Fcss%3Ffamily%3DArchitects%2BDaughter;fontSize=20;sketch=1;curveFitting=1;jiggle=2;labelBackgroundColor=none;fillColor=#FAE5C7;strokeColor=#0F8B8D;fontColor=#143642;" vertex="1" parent="1">
          <mxGeometry x="40" y="320" width="120" height="60" as="geometry" />
        </mxCell>
        <mxCell id="lfWD4oRQ2sTLvUU-yB0J-50" style="edgeStyle=orthogonalEdgeStyle;rounded=0;sketch=1;hachureGap=4;jiggle=2;curveFitting=1;orthogonalLoop=1;jettySize=auto;html=1;exitX=1;exitY=0.5;exitDx=0;exitDy=0;entryX=0;entryY=0.5;entryDx=0;entryDy=0;strokeColor=#A8201A;fontFamily=Architects Daughter;fontSource=https%3A%2F%2Ffonts.googleapis.com%2Fcss%3Ffamily%3DArchitects%2BDaughter;fontSize=16;fontColor=#143642;fillColor=#FAE5C7;" edge="1" parent="1" source="lfWD4oRQ2sTLvUU-yB0J-4" target="lfWD4oRQ2sTLvUU-yB0J-39">
          <mxGeometry relative="1" as="geometry" />
        </mxCell>
        <mxCell id="lfWD4oRQ2sTLvUU-yB0J-4" value="Create Invoice" style="rounded=1;whiteSpace=wrap;html=1;hachureGap=4;fontFamily=Architects Daughter;fontSource=https%3A%2F%2Ffonts.googleapis.com%2Fcss%3Ffamily%3DArchitects%2BDaughter;fontSize=20;sketch=1;curveFitting=1;jiggle=2;labelBackgroundColor=none;fillColor=#FAE5C7;strokeColor=#0F8B8D;fontColor=#143642;" vertex="1" parent="1">
          <mxGeometry x="40" y="400" width="120" height="60" as="geometry" />
        </mxCell>
        <mxCell id="lfWD4oRQ2sTLvUU-yB0J-51" style="edgeStyle=orthogonalEdgeStyle;rounded=0;sketch=1;hachureGap=4;jiggle=2;curveFitting=1;orthogonalLoop=1;jettySize=auto;html=1;exitX=1;exitY=0.5;exitDx=0;exitDy=0;entryX=0.004;entryY=0.649;entryDx=0;entryDy=0;entryPerimeter=0;strokeColor=#A8201A;fontFamily=Architects Daughter;fontSource=https%3A%2F%2Ffonts.googleapis.com%2Fcss%3Ffamily%3DArchitects%2BDaughter;fontSize=16;fontColor=#143642;fillColor=#FAE5C7;" edge="1" parent="1" source="lfWD4oRQ2sTLvUU-yB0J-5" target="lfWD4oRQ2sTLvUU-yB0J-42">
          <mxGeometry relative="1" as="geometry">
            <Array as="points">
              <mxPoint x="160" y="529" />
            </Array>
          </mxGeometry>
        </mxCell>
        <mxCell id="lfWD4oRQ2sTLvUU-yB0J-5" value="Pay Invoice" style="rounded=1;whiteSpace=wrap;html=1;hachureGap=4;fontFamily=Architects Daughter;fontSource=https%3A%2F%2Ffonts.googleapis.com%2Fcss%3Ffamily%3DArchitects%2BDaughter;fontSize=20;sketch=1;curveFitting=1;jiggle=2;labelBackgroundColor=none;fillColor=#FAE5C7;strokeColor=#0F8B8D;fontColor=#143642;" vertex="1" parent="1">
          <mxGeometry x="40" y="500" width="120" height="60" as="geometry" />
        </mxCell>
        <mxCell id="lfWD4oRQ2sTLvUU-yB0J-64" value="" style="edgeStyle=orthogonalEdgeStyle;rounded=0;sketch=1;hachureGap=4;jiggle=2;curveFitting=1;orthogonalLoop=1;jettySize=auto;html=1;strokeColor=#A8201A;fontFamily=Architects Daughter;fontSource=https%3A%2F%2Ffonts.googleapis.com%2Fcss%3Ffamily%3DArchitects%2BDaughter;fontSize=16;fontColor=#143642;fillColor=#FAE5C7;" edge="1" parent="1" source="lfWD4oRQ2sTLvUU-yB0J-7" target="lfWD4oRQ2sTLvUU-yB0J-63">
          <mxGeometry relative="1" as="geometry" />
        </mxCell>
        <mxCell id="lfWD4oRQ2sTLvUU-yB0J-7" value="API Key Mgt" style="rounded=1;whiteSpace=wrap;html=1;hachureGap=4;fontFamily=Architects Daughter;fontSource=https%3A%2F%2Ffonts.googleapis.com%2Fcss%3Ffamily%3DArchitects%2BDaughter;fontSize=20;sketch=1;curveFitting=1;jiggle=2;labelBackgroundColor=none;fillColor=#dae8fc;strokeColor=#6c8ebf;" vertex="1" parent="1">
          <mxGeometry x="40" y="720" width="120" height="60" as="geometry" />
        </mxCell>
        <mxCell id="lfWD4oRQ2sTLvUU-yB0J-69" value="" style="edgeStyle=orthogonalEdgeStyle;rounded=0;sketch=1;hachureGap=4;jiggle=2;curveFitting=1;orthogonalLoop=1;jettySize=auto;html=1;strokeColor=#A8201A;fontFamily=Architects Daughter;fontSource=https%3A%2F%2Ffonts.googleapis.com%2Fcss%3Ffamily%3DArchitects%2BDaughter;fontSize=16;fontColor=#143642;fillColor=#FAE5C7;" edge="1" parent="1" source="lfWD4oRQ2sTLvUU-yB0J-8" target="lfWD4oRQ2sTLvUU-yB0J-68">
          <mxGeometry relative="1" as="geometry" />
        </mxCell>
        <mxCell id="lfWD4oRQ2sTLvUU-yB0J-8" value="Farm Mgt" style="rounded=1;whiteSpace=wrap;html=1;hachureGap=4;fontFamily=Architects Daughter;fontSource=https%3A%2F%2Ffonts.googleapis.com%2Fcss%3Ffamily%3DArchitects%2BDaughter;fontSize=20;sketch=1;curveFitting=1;jiggle=2;labelBackgroundColor=none;" vertex="1" parent="1">
          <mxGeometry x="40" y="850" width="120" height="60" as="geometry" />
        </mxCell>
        <mxCell id="lfWD4oRQ2sTLvUU-yB0J-60" value="" style="edgeStyle=orthogonalEdgeStyle;rounded=0;sketch=1;hachureGap=4;jiggle=2;curveFitting=1;orthogonalLoop=1;jettySize=auto;html=1;strokeColor=#A8201A;fontFamily=Architects Daughter;fontSource=https%3A%2F%2Ffonts.googleapis.com%2Fcss%3Ffamily%3DArchitects%2BDaughter;fontSize=16;fontColor=#143642;fillColor=#FAE5C7;" edge="1" parent="1" source="lfWD4oRQ2sTLvUU-yB0J-9" target="lfWD4oRQ2sTLvUU-yB0J-59">
          <mxGeometry relative="1" as="geometry" />
        </mxCell>
        <mxCell id="lfWD4oRQ2sTLvUU-yB0J-9" value="Usage Mgt" style="rounded=1;whiteSpace=wrap;html=1;hachureGap=4;fontFamily=Architects Daughter;fontSource=https%3A%2F%2Ffonts.googleapis.com%2Fcss%3Ffamily%3DArchitects%2BDaughter;fontSize=20;sketch=1;curveFitting=1;jiggle=2;labelBackgroundColor=none;fillColor=#dae8fc;strokeColor=#6c8ebf;" vertex="1" parent="1">
          <mxGeometry x="40" y="600" width="120" height="60" as="geometry" />
        </mxCell>
        <mxCell id="lfWD4oRQ2sTLvUU-yB0J-10" value="Start" style="ellipse;shape=doubleEllipse;whiteSpace=wrap;html=1;hachureGap=4;fontFamily=Architects Daughter;fontSource=https%3A%2F%2Ffonts.googleapis.com%2Fcss%3Ffamily%3DArchitects%2BDaughter;fontSize=20;sketch=1;curveFitting=1;jiggle=2;rounded=1;labelBackgroundColor=none;fillColor=#FAE5C7;strokeColor=#0F8B8D;fontColor=#143642;" vertex="1" parent="1">
          <mxGeometry x="110" y="-120" width="100" height="60" as="geometry" />
        </mxCell>
        <mxCell id="lfWD4oRQ2sTLvUU-yB0J-11" value="" style="endArrow=none;html=1;rounded=1;hachureGap=4;fontFamily=Architects Daughter;fontSource=https%3A%2F%2Ffonts.googleapis.com%2Fcss%3Ffamily%3DArchitects%2BDaughter;fontSize=16;dashed=1;dashPattern=12 12;sketch=1;curveFitting=1;jiggle=2;labelBackgroundColor=none;strokeColor=#A8201A;fontColor=default;" edge="1" parent="1">
          <mxGeometry width="50" height="50" relative="1" as="geometry">
            <mxPoint x="20" y="1000" as="sourcePoint" />
            <mxPoint x="20" y="190" as="targetPoint" />
          </mxGeometry>
        </mxCell>
        <mxCell id="lfWD4oRQ2sTLvUU-yB0J-15" value="" style="endArrow=none;html=1;rounded=1;hachureGap=4;fontFamily=Architects Daughter;fontSource=https%3A%2F%2Ffonts.googleapis.com%2Fcss%3Ffamily%3DArchitects%2BDaughter;fontSize=16;dashed=1;dashPattern=12 12;sketch=1;curveFitting=1;jiggle=2;labelBackgroundColor=none;strokeColor=#A8201A;fontColor=default;" edge="1" parent="1">
          <mxGeometry width="50" height="50" relative="1" as="geometry">
            <mxPoint x="20" y="200" as="sourcePoint" />
            <mxPoint x="1570" y="200" as="targetPoint" />
          </mxGeometry>
        </mxCell>
        <mxCell id="lfWD4oRQ2sTLvUU-yB0J-16" value="Authentication Scope" style="text;html=1;strokeColor=none;fillColor=none;align=center;verticalAlign=middle;whiteSpace=wrap;rounded=1;fontSize=20;fontFamily=Architects Daughter;sketch=1;curveFitting=1;jiggle=2;labelBackgroundColor=none;fontColor=#143642;" vertex="1" parent="1">
          <mxGeometry x="30" y="210" width="220" height="20" as="geometry" />
        </mxCell>
        <mxCell id="lfWD4oRQ2sTLvUU-yB0J-17" value="" style="endArrow=none;html=1;rounded=1;hachureGap=4;fontFamily=Architects Daughter;fontSource=https%3A%2F%2Ffonts.googleapis.com%2Fcss%3Ffamily%3DArchitects%2BDaughter;fontSize=16;dashed=1;jumpSize=3;strokeColor=none;sketch=1;curveFitting=1;jiggle=2;labelBackgroundColor=none;fontColor=default;" edge="1" parent="1" target="lfWD4oRQ2sTLvUU-yB0J-1">
          <mxGeometry width="50" height="50" relative="1" as="geometry">
            <mxPoint x="20" y="170" as="sourcePoint" />
            <mxPoint x="810" y="170" as="targetPoint" />
          </mxGeometry>
        </mxCell>
        <mxCell id="lfWD4oRQ2sTLvUU-yB0J-22" style="edgeStyle=orthogonalEdgeStyle;rounded=0;sketch=1;hachureGap=4;jiggle=2;curveFitting=1;orthogonalLoop=1;jettySize=auto;html=1;entryX=0;entryY=0.5;entryDx=0;entryDy=0;strokeColor=#A8201A;fontFamily=Architects Daughter;fontSource=https%3A%2F%2Ffonts.googleapis.com%2Fcss%3Ffamily%3DArchitects%2BDaughter;fontSize=16;fontColor=#143642;fillColor=#FAE5C7;movable=0;resizable=0;rotatable=0;deletable=0;editable=0;locked=1;connectable=0;" edge="1" parent="1" source="lfWD4oRQ2sTLvUU-yB0J-1" target="lfWD4oRQ2sTLvUU-yB0J-19">
          <mxGeometry relative="1" as="geometry" />
        </mxCell>
        <mxCell id="lfWD4oRQ2sTLvUU-yB0J-23" style="edgeStyle=orthogonalEdgeStyle;rounded=0;sketch=1;hachureGap=4;jiggle=2;curveFitting=1;orthogonalLoop=1;jettySize=auto;html=1;entryX=0;entryY=0.5;entryDx=0;entryDy=0;strokeColor=#A8201A;fontFamily=Architects Daughter;fontSource=https%3A%2F%2Ffonts.googleapis.com%2Fcss%3Ffamily%3DArchitects%2BDaughter;fontSize=16;fontColor=#143642;fillColor=#FAE5C7;movable=0;resizable=0;rotatable=0;deletable=0;editable=0;locked=1;connectable=0;" edge="1" parent="1" source="lfWD4oRQ2sTLvUU-yB0J-1" target="lfWD4oRQ2sTLvUU-yB0J-21">
          <mxGeometry relative="1" as="geometry" />
        </mxCell>
        <mxCell id="lfWD4oRQ2sTLvUU-yB0J-1" value="Sign Up" style="rounded=1;whiteSpace=wrap;html=1;hachureGap=4;fontFamily=Architects Daughter;fontSource=https%3A%2F%2Ffonts.googleapis.com%2Fcss%3Ffamily%3DArchitects%2BDaughter;fontSize=20;sketch=1;curveFitting=1;jiggle=2;fillColor=#f8cecc;strokeColor=#b85450;labelBackgroundColor=none;" vertex="1" parent="1">
          <mxGeometry x="60" y="70" width="120" height="60" as="geometry" />
        </mxCell>
        <mxCell id="lfWD4oRQ2sTLvUU-yB0J-20" value="" style="endArrow=none;html=1;rounded=1;hachureGap=4;fontFamily=Architects Daughter;fontSource=https%3A%2F%2Ffonts.googleapis.com%2Fcss%3Ffamily%3DArchitects%2BDaughter;fontSize=16;dashed=1;jumpSize=3;strokeColor=none;sketch=1;curveFitting=1;jiggle=2;labelBackgroundColor=none;fontColor=default;movable=0;resizable=0;rotatable=0;deletable=0;editable=0;locked=1;connectable=0;" edge="1" parent="1" source="lfWD4oRQ2sTLvUU-yB0J-1" target="lfWD4oRQ2sTLvUU-yB0J-19">
          <mxGeometry width="50" height="50" relative="1" as="geometry">
            <mxPoint x="160" y="161" as="sourcePoint" />
            <mxPoint x="810" y="170" as="targetPoint" />
          </mxGeometry>
        </mxCell>
        <mxCell id="lfWD4oRQ2sTLvUU-yB0J-28" value="" style="edgeStyle=orthogonalEdgeStyle;rounded=0;sketch=1;hachureGap=4;jiggle=2;curveFitting=1;orthogonalLoop=1;jettySize=auto;html=1;strokeColor=#A8201A;fontFamily=Architects Daughter;fontSource=https%3A%2F%2Ffonts.googleapis.com%2Fcss%3Ffamily%3DArchitects%2BDaughter;fontSize=16;fontColor=#143642;fillColor=#FAE5C7;movable=0;resizable=0;rotatable=0;deletable=0;editable=0;locked=1;connectable=0;" edge="1" parent="1" source="lfWD4oRQ2sTLvUU-yB0J-19" target="lfWD4oRQ2sTLvUU-yB0J-27">
          <mxGeometry relative="1" as="geometry" />
        </mxCell>
        <mxCell id="lfWD4oRQ2sTLvUU-yB0J-19" value="Signup Using Valid email and password" style="shape=process;whiteSpace=wrap;html=1;backgroundOutline=1;hachureGap=4;fontFamily=Architects Daughter;fontSource=https%3A%2F%2Ffonts.googleapis.com%2Fcss%3Ffamily%3DArchitects%2BDaughter;fontSize=20;sketch=1;curveFitting=1;jiggle=2;fillColor=#f8cecc;strokeColor=#b85450;rounded=1;labelBackgroundColor=none;" vertex="1" parent="1">
          <mxGeometry x="260" y="30" width="480" height="60" as="geometry" />
        </mxCell>
        <mxCell id="lfWD4oRQ2sTLvUU-yB0J-26" style="edgeStyle=orthogonalEdgeStyle;rounded=0;sketch=1;hachureGap=4;jiggle=2;curveFitting=1;orthogonalLoop=1;jettySize=auto;html=1;strokeColor=#A8201A;fontFamily=Architects Daughter;fontSource=https%3A%2F%2Ffonts.googleapis.com%2Fcss%3Ffamily%3DArchitects%2BDaughter;fontSize=16;fontColor=#143642;fillColor=#FAE5C7;entryX=0;entryY=0.5;entryDx=0;entryDy=0;movable=0;resizable=0;rotatable=0;deletable=0;editable=0;locked=1;connectable=0;" edge="1" parent="1" source="lfWD4oRQ2sTLvUU-yB0J-21" target="lfWD4oRQ2sTLvUU-yB0J-27">
          <mxGeometry relative="1" as="geometry">
            <mxPoint x="770" y="210" as="targetPoint" />
          </mxGeometry>
        </mxCell>
        <mxCell id="lfWD4oRQ2sTLvUU-yB0J-21" value="Signup using Social (Facebook/Google/Apple/MST)" style="shape=process;whiteSpace=wrap;html=1;backgroundOutline=1;hachureGap=4;fontFamily=Architects Daughter;fontSource=https%3A%2F%2Ffonts.googleapis.com%2Fcss%3Ffamily%3DArchitects%2BDaughter;fontSize=20;sketch=1;curveFitting=1;jiggle=2;fillColor=#f8cecc;strokeColor=#b85450;rounded=1;labelBackgroundColor=none;" vertex="1" parent="1">
          <mxGeometry x="260" y="110" width="480" height="60" as="geometry" />
        </mxCell>
        <mxCell id="lfWD4oRQ2sTLvUU-yB0J-33" value="" style="edgeStyle=orthogonalEdgeStyle;rounded=0;sketch=1;hachureGap=4;jiggle=2;curveFitting=1;orthogonalLoop=1;jettySize=auto;html=1;strokeColor=#A8201A;fontFamily=Architects Daughter;fontSource=https%3A%2F%2Ffonts.googleapis.com%2Fcss%3Ffamily%3DArchitects%2BDaughter;fontSize=16;fontColor=#143642;fillColor=#FAE5C7;" edge="1" parent="1" source="lfWD4oRQ2sTLvUU-yB0J-27" target="lfWD4oRQ2sTLvUU-yB0J-32">
          <mxGeometry relative="1" as="geometry" />
        </mxCell>
        <mxCell id="lfWD4oRQ2sTLvUU-yB0J-27" value="Authentication API generated" style="whiteSpace=wrap;html=1;fontSize=20;fontFamily=Architects Daughter;fillColor=#f8cecc;strokeColor=#b85450;hachureGap=4;fontSource=https%3A%2F%2Ffonts.googleapis.com%2Fcss%3Ffamily%3DArchitects%2BDaughter;sketch=1;curveFitting=1;jiggle=2;rounded=1;labelBackgroundColor=none;movable=1;resizable=1;rotatable=1;deletable=1;editable=1;locked=0;connectable=1;" vertex="1" parent="1">
          <mxGeometry x="850" y="70" width="180" height="60" as="geometry" />
        </mxCell>
        <mxCell id="lfWD4oRQ2sTLvUU-yB0J-29" value="" style="endArrow=none;html=1;rounded=1;hachureGap=4;fontFamily=Architects Daughter;fontSource=https%3A%2F%2Ffonts.googleapis.com%2Fcss%3Ffamily%3DArchitects%2BDaughter;fontSize=16;dashed=1;dashPattern=12 12;sketch=1;curveFitting=1;jiggle=2;labelBackgroundColor=none;strokeColor=#53a81a;fontColor=default;" edge="1" parent="1">
          <mxGeometry width="50" height="50" relative="1" as="geometry">
            <mxPoint x="20" y="-30" as="sourcePoint" />
            <mxPoint x="1190" y="-30" as="targetPoint" />
          </mxGeometry>
        </mxCell>
        <mxCell id="lfWD4oRQ2sTLvUU-yB0J-30" value="" style="endArrow=none;html=1;rounded=1;hachureGap=4;fontFamily=Architects Daughter;fontSource=https%3A%2F%2Ffonts.googleapis.com%2Fcss%3Ffamily%3DArchitects%2BDaughter;fontSize=16;dashed=1;dashPattern=12 12;sketch=1;curveFitting=1;jiggle=2;labelBackgroundColor=none;strokeColor=#53a81a;fontColor=default;" edge="1" parent="1">
          <mxGeometry width="50" height="50" relative="1" as="geometry">
            <mxPoint x="20" y="-30" as="sourcePoint" />
            <mxPoint x="20" y="190" as="targetPoint" />
          </mxGeometry>
        </mxCell>
        <mxCell id="lfWD4oRQ2sTLvUU-yB0J-31" value="Public Scope" style="text;html=1;strokeColor=none;fillColor=none;align=center;verticalAlign=middle;whiteSpace=wrap;rounded=1;fontSize=20;fontFamily=Architects Daughter;sketch=1;curveFitting=1;jiggle=2;labelBackgroundColor=none;fontColor=#143642;" vertex="1" parent="1">
          <mxGeometry x="40" y="-20" width="220" height="20" as="geometry" />
        </mxCell>
        <mxCell id="lfWD4oRQ2sTLvUU-yB0J-32" value="END" style="whiteSpace=wrap;html=1;fontSize=20;fontFamily=Architects Daughter;fillColor=#FF99CC;strokeColor=#FF0080;fontColor=#143642;hachureGap=4;fontSource=https%3A%2F%2Ffonts.googleapis.com%2Fcss%3Ffamily%3DArchitects%2BDaughter;sketch=1;curveFitting=1;jiggle=2;rounded=1;labelBackgroundColor=none;movable=1;resizable=1;rotatable=1;deletable=1;editable=1;locked=0;connectable=1;" vertex="1" parent="1">
          <mxGeometry x="1140" y="70" width="180" height="60" as="geometry" />
        </mxCell>
        <mxCell id="lfWD4oRQ2sTLvUU-yB0J-40" style="edgeStyle=orthogonalEdgeStyle;rounded=0;sketch=1;hachureGap=4;jiggle=2;curveFitting=1;orthogonalLoop=1;jettySize=auto;html=1;exitX=0.5;exitY=1;exitDx=0;exitDy=0;entryX=0;entryY=0.5;entryDx=0;entryDy=0;strokeColor=#A8201A;fontFamily=Architects Daughter;fontSource=https%3A%2F%2Ffonts.googleapis.com%2Fcss%3Ffamily%3DArchitects%2BDaughter;fontSize=16;fontColor=#143642;fillColor=#FAE5C7;" edge="1" parent="1" source="lfWD4oRQ2sTLvUU-yB0J-34" target="lfWD4oRQ2sTLvUU-yB0J-38">
          <mxGeometry relative="1" as="geometry">
            <Array as="points">
              <mxPoint x="500" y="310" />
              <mxPoint x="360" y="310" />
              <mxPoint x="360" y="350" />
            </Array>
          </mxGeometry>
        </mxCell>
        <mxCell id="lfWD4oRQ2sTLvUU-yB0J-56" style="edgeStyle=orthogonalEdgeStyle;rounded=0;sketch=1;hachureGap=4;jiggle=2;curveFitting=1;orthogonalLoop=1;jettySize=auto;html=1;exitX=1;exitY=0.5;exitDx=0;exitDy=0;entryX=0.563;entryY=-0.045;entryDx=0;entryDy=0;entryPerimeter=0;strokeColor=#A8201A;fontFamily=Architects Daughter;fontSource=https%3A%2F%2Ffonts.googleapis.com%2Fcss%3Ffamily%3DArchitects%2BDaughter;fontSize=16;fontColor=#143642;fillColor=#FAE5C7;" edge="1" parent="1" source="lfWD4oRQ2sTLvUU-yB0J-34" target="lfWD4oRQ2sTLvUU-yB0J-36">
          <mxGeometry relative="1" as="geometry" />
        </mxCell>
        <mxCell id="lfWD4oRQ2sTLvUU-yB0J-34" value="With AUTH Token/Email/OAuth token" style="whiteSpace=wrap;html=1;fontSize=20;fontFamily=Architects Daughter;fillColor=#FAE5C7;strokeColor=#0F8B8D;fontColor=#143642;rounded=1;hachureGap=4;fontSource=https%3A%2F%2Ffonts.googleapis.com%2Fcss%3Ffamily%3DArchitects%2BDaughter;sketch=1;curveFitting=1;jiggle=2;labelBackgroundColor=none;" vertex="1" parent="1">
          <mxGeometry x="260" y="240" width="480" height="60" as="geometry" />
        </mxCell>
        <mxCell id="lfWD4oRQ2sTLvUU-yB0J-36" value="END" style="whiteSpace=wrap;html=1;fontSize=20;fontFamily=Architects Daughter;fillColor=#FF99CC;strokeColor=#FF0080;fontColor=#143642;hachureGap=4;fontSource=https%3A%2F%2Ffonts.googleapis.com%2Fcss%3Ffamily%3DArchitects%2BDaughter;sketch=1;curveFitting=1;jiggle=2;rounded=1;labelBackgroundColor=none;movable=1;resizable=1;rotatable=1;deletable=1;editable=1;locked=0;connectable=1;" vertex="1" parent="1">
          <mxGeometry x="1320" y="370" width="180" height="60" as="geometry" />
        </mxCell>
        <mxCell id="lfWD4oRQ2sTLvUU-yB0J-41" style="edgeStyle=orthogonalEdgeStyle;rounded=0;sketch=1;hachureGap=4;jiggle=2;curveFitting=1;orthogonalLoop=1;jettySize=auto;html=1;exitX=0.5;exitY=1;exitDx=0;exitDy=0;entryX=0;entryY=0.5;entryDx=0;entryDy=0;strokeColor=#A8201A;fontFamily=Architects Daughter;fontSource=https%3A%2F%2Ffonts.googleapis.com%2Fcss%3Ffamily%3DArchitects%2BDaughter;fontSize=16;fontColor=#143642;fillColor=#FAE5C7;" edge="1" parent="1" source="lfWD4oRQ2sTLvUU-yB0J-38" target="lfWD4oRQ2sTLvUU-yB0J-39">
          <mxGeometry relative="1" as="geometry">
            <Array as="points">
              <mxPoint x="630" y="390" />
              <mxPoint x="470" y="390" />
              <mxPoint x="470" y="430" />
            </Array>
          </mxGeometry>
        </mxCell>
        <mxCell id="lfWD4oRQ2sTLvUU-yB0J-47" style="edgeStyle=orthogonalEdgeStyle;rounded=0;sketch=1;hachureGap=4;jiggle=2;curveFitting=1;orthogonalLoop=1;jettySize=auto;html=1;exitX=0.5;exitY=0;exitDx=0;exitDy=0;entryX=0.765;entryY=1.005;entryDx=0;entryDy=0;entryPerimeter=0;strokeColor=#A8201A;fontFamily=Architects Daughter;fontSource=https%3A%2F%2Ffonts.googleapis.com%2Fcss%3Ffamily%3DArchitects%2BDaughter;fontSize=16;fontColor=#143642;fillColor=#FAE5C7;" edge="1" parent="1" source="lfWD4oRQ2sTLvUU-yB0J-38" target="lfWD4oRQ2sTLvUU-yB0J-34">
          <mxGeometry relative="1" as="geometry" />
        </mxCell>
        <mxCell id="lfWD4oRQ2sTLvUU-yB0J-57" style="edgeStyle=orthogonalEdgeStyle;rounded=0;sketch=1;hachureGap=4;jiggle=2;curveFitting=1;orthogonalLoop=1;jettySize=auto;html=1;exitX=1;exitY=0.5;exitDx=0;exitDy=0;entryX=0.556;entryY=0;entryDx=0;entryDy=0;entryPerimeter=0;strokeColor=#A8201A;fontFamily=Architects Daughter;fontSource=https%3A%2F%2Ffonts.googleapis.com%2Fcss%3Ffamily%3DArchitects%2BDaughter;fontSize=16;fontColor=#143642;fillColor=#FAE5C7;" edge="1" parent="1" source="lfWD4oRQ2sTLvUU-yB0J-38" target="lfWD4oRQ2sTLvUU-yB0J-36">
          <mxGeometry relative="1" as="geometry" />
        </mxCell>
        <mxCell id="lfWD4oRQ2sTLvUU-yB0J-38" value="€100 Free Credits * Configurable from Backend on First Visit" style="whiteSpace=wrap;html=1;fontSize=20;fontFamily=Architects Daughter;fillColor=#FAE5C7;strokeColor=#0F8B8D;fontColor=#143642;rounded=1;hachureGap=4;fontSource=https%3A%2F%2Ffonts.googleapis.com%2Fcss%3Ffamily%3DArchitects%2BDaughter;sketch=1;curveFitting=1;jiggle=2;labelBackgroundColor=none;" vertex="1" parent="1">
          <mxGeometry x="380" y="320" width="500" height="60" as="geometry" />
        </mxCell>
        <mxCell id="lfWD4oRQ2sTLvUU-yB0J-43" style="edgeStyle=orthogonalEdgeStyle;rounded=0;sketch=1;hachureGap=4;jiggle=2;curveFitting=1;orthogonalLoop=1;jettySize=auto;html=1;exitX=0.5;exitY=1;exitDx=0;exitDy=0;entryX=0.5;entryY=0;entryDx=0;entryDy=0;strokeColor=#A8201A;fontFamily=Architects Daughter;fontSource=https%3A%2F%2Ffonts.googleapis.com%2Fcss%3Ffamily%3DArchitects%2BDaughter;fontSize=16;fontColor=#143642;fillColor=#FAE5C7;" edge="1" parent="1" source="lfWD4oRQ2sTLvUU-yB0J-39" target="lfWD4oRQ2sTLvUU-yB0J-42">
          <mxGeometry relative="1" as="geometry" />
        </mxCell>
        <mxCell id="lfWD4oRQ2sTLvUU-yB0J-45" style="edgeStyle=orthogonalEdgeStyle;rounded=0;sketch=1;hachureGap=4;jiggle=2;curveFitting=1;orthogonalLoop=1;jettySize=auto;html=1;exitX=0.5;exitY=0;exitDx=0;exitDy=0;entryX=0.893;entryY=1.055;entryDx=0;entryDy=0;entryPerimeter=0;strokeColor=#A8201A;fontFamily=Architects Daughter;fontSource=https%3A%2F%2Ffonts.googleapis.com%2Fcss%3Ffamily%3DArchitects%2BDaughter;fontSize=16;fontColor=#143642;fillColor=#FAE5C7;" edge="1" parent="1" source="lfWD4oRQ2sTLvUU-yB0J-39" target="lfWD4oRQ2sTLvUU-yB0J-38">
          <mxGeometry relative="1" as="geometry" />
        </mxCell>
        <mxCell id="lfWD4oRQ2sTLvUU-yB0J-54" style="edgeStyle=orthogonalEdgeStyle;rounded=0;sketch=1;hachureGap=4;jiggle=2;curveFitting=1;orthogonalLoop=1;jettySize=auto;html=1;exitX=1;exitY=0.5;exitDx=0;exitDy=0;strokeColor=#A8201A;fontFamily=Architects Daughter;fontSource=https%3A%2F%2Ffonts.googleapis.com%2Fcss%3Ffamily%3DArchitects%2BDaughter;fontSize=16;fontColor=#143642;fillColor=#FAE5C7;" edge="1" parent="1" source="lfWD4oRQ2sTLvUU-yB0J-39">
          <mxGeometry relative="1" as="geometry">
            <mxPoint x="1320" y="400" as="targetPoint" />
            <Array as="points">
              <mxPoint x="1330" y="430" />
              <mxPoint x="1330" y="430" />
            </Array>
          </mxGeometry>
        </mxCell>
        <mxCell id="lfWD4oRQ2sTLvUU-yB0J-39" value="Invoice Created as European Standard * Configurable in Backend, Pay Per Year Per Hectare * Pricing Information configurable in Backend" style="whiteSpace=wrap;html=1;fontSize=20;fontFamily=Architects Daughter;fillColor=#FAE5C7;strokeColor=#0F8B8D;fontColor=#143642;rounded=1;hachureGap=4;fontSource=https%3A%2F%2Ffonts.googleapis.com%2Fcss%3Ffamily%3DArchitects%2BDaughter;sketch=1;curveFitting=1;jiggle=2;labelBackgroundColor=none;" vertex="1" parent="1">
          <mxGeometry x="490" y="400" width="680" height="60" as="geometry" />
        </mxCell>
        <mxCell id="lfWD4oRQ2sTLvUU-yB0J-44" style="edgeStyle=orthogonalEdgeStyle;rounded=0;sketch=1;hachureGap=4;jiggle=2;curveFitting=1;orthogonalLoop=1;jettySize=auto;html=1;exitX=0.75;exitY=0;exitDx=0;exitDy=0;entryX=0.683;entryY=1.022;entryDx=0;entryDy=0;entryPerimeter=0;strokeColor=#A8201A;fontFamily=Architects Daughter;fontSource=https%3A%2F%2Ffonts.googleapis.com%2Fcss%3Ffamily%3DArchitects%2BDaughter;fontSize=16;fontColor=#143642;fillColor=#FAE5C7;" edge="1" parent="1" source="lfWD4oRQ2sTLvUU-yB0J-42" target="lfWD4oRQ2sTLvUU-yB0J-39">
          <mxGeometry relative="1" as="geometry" />
        </mxCell>
        <mxCell id="lfWD4oRQ2sTLvUU-yB0J-48" style="edgeStyle=orthogonalEdgeStyle;rounded=0;sketch=1;hachureGap=4;jiggle=2;curveFitting=1;orthogonalLoop=1;jettySize=auto;html=1;exitX=1;exitY=0.5;exitDx=0;exitDy=0;entryX=0;entryY=0.5;entryDx=0;entryDy=0;strokeColor=#82b366;fontFamily=Architects Daughter;fontSource=https%3A%2F%2Ffonts.googleapis.com%2Fcss%3Ffamily%3DArchitects%2BDaughter;fontSize=16;fontColor=#143642;fillColor=#d5e8d4;" edge="1" parent="1" source="lfWD4oRQ2sTLvUU-yB0J-42" target="lfWD4oRQ2sTLvUU-yB0J-36">
          <mxGeometry relative="1" as="geometry" />
        </mxCell>
        <mxCell id="lfWD4oRQ2sTLvUU-yB0J-42" value="Invoice Payment via Credit Note or PGW" style="whiteSpace=wrap;html=1;fontSize=20;fontFamily=Architects Daughter;fillColor=#FAE5C7;strokeColor=#0F8B8D;fontColor=#143642;rounded=1;hachureGap=4;fontSource=https%3A%2F%2Ffonts.googleapis.com%2Fcss%3Ffamily%3DArchitects%2BDaughter;sketch=1;curveFitting=1;jiggle=2;labelBackgroundColor=none;" vertex="1" parent="1">
          <mxGeometry x="580" y="490" width="500" height="60" as="geometry" />
        </mxCell>
        <mxCell id="lfWD4oRQ2sTLvUU-yB0J-62" style="edgeStyle=orthogonalEdgeStyle;rounded=0;sketch=1;hachureGap=4;jiggle=2;curveFitting=1;orthogonalLoop=1;jettySize=auto;html=1;strokeColor=#A8201A;fontFamily=Architects Daughter;fontSource=https%3A%2F%2Ffonts.googleapis.com%2Fcss%3Ffamily%3DArchitects%2BDaughter;fontSize=16;fontColor=#143642;fillColor=#FAE5C7;" edge="1" parent="1" source="lfWD4oRQ2sTLvUU-yB0J-59" target="lfWD4oRQ2sTLvUU-yB0J-61">
          <mxGeometry relative="1" as="geometry" />
        </mxCell>
        <mxCell id="lfWD4oRQ2sTLvUU-yB0J-59" value="Balance Check, Filtered usage data per key, Logs" style="rounded=1;whiteSpace=wrap;html=1;hachureGap=4;fontFamily=Architects Daughter;fontSource=https%3A%2F%2Ffonts.googleapis.com%2Fcss%3Ffamily%3DArchitects%2BDaughter;fontSize=20;sketch=1;curveFitting=1;jiggle=2;labelBackgroundColor=none;fillColor=#dae8fc;strokeColor=#6c8ebf;" vertex="1" parent="1">
          <mxGeometry x="260" y="600" width="630" height="60" as="geometry" />
        </mxCell>
        <mxCell id="lfWD4oRQ2sTLvUU-yB0J-61" value="END" style="whiteSpace=wrap;html=1;fontSize=20;fontFamily=Architects Daughter;fillColor=#FF99CC;strokeColor=#FF0080;fontColor=#143642;hachureGap=4;fontSource=https%3A%2F%2Ffonts.googleapis.com%2Fcss%3Ffamily%3DArchitects%2BDaughter;sketch=1;curveFitting=1;jiggle=2;rounded=1;labelBackgroundColor=none;movable=1;resizable=1;rotatable=1;deletable=1;editable=1;locked=0;connectable=1;" vertex="1" parent="1">
          <mxGeometry x="1100" y="600" width="180" height="60" as="geometry" />
        </mxCell>
        <mxCell id="lfWD4oRQ2sTLvUU-yB0J-67" style="edgeStyle=orthogonalEdgeStyle;rounded=0;sketch=1;hachureGap=4;jiggle=2;curveFitting=1;orthogonalLoop=1;jettySize=auto;html=1;exitX=1;exitY=0.5;exitDx=0;exitDy=0;strokeColor=#A8201A;fontFamily=Architects Daughter;fontSource=https%3A%2F%2Ffonts.googleapis.com%2Fcss%3Ffamily%3DArchitects%2BDaughter;fontSize=16;fontColor=#143642;fillColor=#FAE5C7;" edge="1" parent="1" source="lfWD4oRQ2sTLvUU-yB0J-63" target="lfWD4oRQ2sTLvUU-yB0J-66">
          <mxGeometry relative="1" as="geometry" />
        </mxCell>
        <mxCell id="lfWD4oRQ2sTLvUU-yB0J-63" value="Generate API keys to request Core Services, Generate and regenerate keys&lt;br&gt;*Only two keys can be active at a time" style="rounded=1;whiteSpace=wrap;html=1;hachureGap=4;fontFamily=Architects Daughter;fontSource=https%3A%2F%2Ffonts.googleapis.com%2Fcss%3Ffamily%3DArchitects%2BDaughter;fontSize=20;sketch=1;curveFitting=1;jiggle=2;labelBackgroundColor=none;fillColor=#dae8fc;strokeColor=#6c8ebf;" vertex="1" parent="1">
          <mxGeometry x="260" y="725" width="780" height="50" as="geometry" />
        </mxCell>
        <mxCell id="lfWD4oRQ2sTLvUU-yB0J-66" value="END" style="whiteSpace=wrap;html=1;fontSize=20;fontFamily=Architects Daughter;fillColor=#FF99CC;strokeColor=#FF0080;fontColor=#143642;hachureGap=4;fontSource=https%3A%2F%2Ffonts.googleapis.com%2Fcss%3Ffamily%3DArchitects%2BDaughter;sketch=1;curveFitting=1;jiggle=2;rounded=1;labelBackgroundColor=none;movable=1;resizable=1;rotatable=1;deletable=1;editable=1;locked=0;connectable=1;" vertex="1" parent="1">
          <mxGeometry x="1100" y="720" width="180" height="60" as="geometry" />
        </mxCell>
        <mxCell id="lfWD4oRQ2sTLvUU-yB0J-71" style="edgeStyle=orthogonalEdgeStyle;rounded=0;sketch=1;hachureGap=4;jiggle=2;curveFitting=1;orthogonalLoop=1;jettySize=auto;html=1;exitX=1;exitY=0.5;exitDx=0;exitDy=0;strokeColor=#A8201A;fontFamily=Architects Daughter;fontSource=https%3A%2F%2Ffonts.googleapis.com%2Fcss%3Ffamily%3DArchitects%2BDaughter;fontSize=16;fontColor=#143642;fillColor=#FAE5C7;" edge="1" parent="1" source="lfWD4oRQ2sTLvUU-yB0J-68" target="lfWD4oRQ2sTLvUU-yB0J-70">
          <mxGeometry relative="1" as="geometry" />
        </mxCell>
        <mxCell id="lfWD4oRQ2sTLvUU-yB0J-68" value="Farms Add, Edits, Fields Add, Edit, Naming, Year wise Corp data in fields, Delegation of Fields" style="rounded=1;whiteSpace=wrap;html=1;hachureGap=4;fontFamily=Architects Daughter;fontSource=https%3A%2F%2Ffonts.googleapis.com%2Fcss%3Ffamily%3DArchitects%2BDaughter;fontSize=20;sketch=1;curveFitting=1;jiggle=2;labelBackgroundColor=none;" vertex="1" parent="1">
          <mxGeometry x="260" y="850" width="780" height="60" as="geometry" />
        </mxCell>
        <mxCell id="lfWD4oRQ2sTLvUU-yB0J-70" value="END" style="whiteSpace=wrap;html=1;fontSize=20;fontFamily=Architects Daughter;fillColor=#FF99CC;strokeColor=#FF0080;fontColor=#143642;hachureGap=4;fontSource=https%3A%2F%2Ffonts.googleapis.com%2Fcss%3Ffamily%3DArchitects%2BDaughter;sketch=1;curveFitting=1;jiggle=2;rounded=1;labelBackgroundColor=none;movable=1;resizable=1;rotatable=1;deletable=1;editable=1;locked=0;connectable=1;" vertex="1" parent="1">
          <mxGeometry x="1100" y="850" width="180" height="60" as="geometry" />
        </mxCell>
        <mxCell id="lfWD4oRQ2sTLvUU-yB0J-72" value="" style="endArrow=none;html=1;rounded=1;hachureGap=4;fontFamily=Architects Daughter;fontSource=https%3A%2F%2Ffonts.googleapis.com%2Fcss%3Ffamily%3DArchitects%2BDaughter;fontSize=16;dashed=1;dashPattern=12 12;sketch=1;curveFitting=1;jiggle=2;labelBackgroundColor=none;strokeColor=#A8201A;fontColor=default;" edge="1" parent="1">
          <mxGeometry width="50" height="50" relative="1" as="geometry">
            <mxPoint x="20" y="1002" as="sourcePoint" />
            <mxPoint x="1560" y="1002" as="targetPoint" />
          </mxGeometry>
        </mxCell>
        <mxCell id="lfWD4oRQ2sTLvUU-yB0J-73" value="" style="endArrow=none;html=1;rounded=1;hachureGap=4;fontFamily=Architects Daughter;fontSource=https%3A%2F%2Ffonts.googleapis.com%2Fcss%3Ffamily%3DArchitects%2BDaughter;fontSize=16;dashed=1;dashPattern=12 12;sketch=1;curveFitting=1;jiggle=2;labelBackgroundColor=none;strokeColor=#A8201A;fontColor=default;" edge="1" parent="1">
          <mxGeometry width="50" height="50" relative="1" as="geometry">
            <mxPoint x="1570" y="200" as="sourcePoint" />
            <mxPoint x="1570" y="1012" as="targetPoint" />
          </mxGeometry>
        </mxCell>
        <mxCell id="lfWD4oRQ2sTLvUU-yB0J-80" value="" style="edgeStyle=orthogonalEdgeStyle;rounded=0;sketch=1;hachureGap=4;jiggle=2;curveFitting=1;orthogonalLoop=1;jettySize=auto;html=1;strokeColor=#A8201A;fontFamily=Architects Daughter;fontSource=https%3A%2F%2Ffonts.googleapis.com%2Fcss%3Ffamily%3DArchitects%2BDaughter;fontSize=16;fontColor=#143642;fillColor=#FAE5C7;" edge="1" parent="1" source="lfWD4oRQ2sTLvUU-yB0J-74">
          <mxGeometry relative="1" as="geometry">
            <mxPoint x="405" y="1160" as="targetPoint" />
          </mxGeometry>
        </mxCell>
        <mxCell id="lfWD4oRQ2sTLvUU-yB0J-81" value="Request" style="edgeLabel;html=1;align=center;verticalAlign=middle;resizable=0;points=[];fontSize=20;fontFamily=Architects Daughter;fontColor=#143642;" vertex="1" connectable="0" parent="lfWD4oRQ2sTLvUU-yB0J-80">
          <mxGeometry x="-0.1368" y="4" relative="1" as="geometry">
            <mxPoint x="-1" as="offset" />
          </mxGeometry>
        </mxCell>
        <mxCell id="lfWD4oRQ2sTLvUU-yB0J-74" value="Request VI&#39;s" style="rounded=1;whiteSpace=wrap;html=1;hachureGap=4;fontFamily=Architects Daughter;fontSource=https%3A%2F%2Ffonts.googleapis.com%2Fcss%3Ffamily%3DArchitects%2BDaughter;fontSize=20;sketch=1;curveFitting=1;jiggle=2;labelBackgroundColor=none;" vertex="1" parent="1">
          <mxGeometry x="95" y="1130" width="125" height="60" as="geometry" />
        </mxCell>
        <mxCell id="lfWD4oRQ2sTLvUU-yB0J-75" value="" style="endArrow=none;html=1;rounded=1;hachureGap=4;fontFamily=Architects Daughter;fontSource=https%3A%2F%2Ffonts.googleapis.com%2Fcss%3Ffamily%3DArchitects%2BDaughter;fontSize=16;dashed=1;dashPattern=12 12;sketch=1;curveFitting=1;jiggle=2;labelBackgroundColor=none;strokeColor=#33001A;fontColor=default;" edge="1" parent="1">
          <mxGeometry width="50" height="50" relative="1" as="geometry">
            <mxPoint x="-882" y="1060" as="sourcePoint" />
            <mxPoint x="950" y="1060" as="targetPoint" />
          </mxGeometry>
        </mxCell>
        <mxCell id="lfWD4oRQ2sTLvUU-yB0J-76" value="" style="endArrow=none;html=1;rounded=1;hachureGap=4;fontFamily=Architects Daughter;fontSource=https%3A%2F%2Ffonts.googleapis.com%2Fcss%3Ffamily%3DArchitects%2BDaughter;fontSize=16;dashed=1;dashPattern=12 12;sketch=1;curveFitting=1;jiggle=2;labelBackgroundColor=none;strokeColor=#660033;fontColor=default;" edge="1" parent="1">
          <mxGeometry width="50" height="50" relative="1" as="geometry">
            <mxPoint x="30" y="1060" as="sourcePoint" />
            <mxPoint x="30" y="3800" as="targetPoint" />
          </mxGeometry>
        </mxCell>
        <mxCell id="lfWD4oRQ2sTLvUU-yB0J-77" value="API Scope" style="text;html=1;strokeColor=none;fillColor=none;align=center;verticalAlign=middle;whiteSpace=wrap;rounded=1;fontSize=20;fontFamily=Architects Daughter;sketch=1;curveFitting=1;jiggle=2;labelBackgroundColor=none;fontColor=#143642;" vertex="1" parent="1">
          <mxGeometry x="50" y="1070" width="110" height="20" as="geometry" />
        </mxCell>
        <mxCell id="lfWD4oRQ2sTLvUU-yB0J-85" style="edgeStyle=orthogonalEdgeStyle;rounded=0;sketch=1;hachureGap=4;jiggle=2;curveFitting=1;orthogonalLoop=1;jettySize=auto;html=1;entryX=0.475;entryY=0.008;entryDx=0;entryDy=0;entryPerimeter=0;strokeColor=#A8201A;fontFamily=Architects Daughter;fontSource=https%3A%2F%2Ffonts.googleapis.com%2Fcss%3Ffamily%3DArchitects%2BDaughter;fontSize=16;fontColor=#143642;fillColor=#FAE5C7;" edge="1" parent="1" source="lfWD4oRQ2sTLvUU-yB0J-78">
          <mxGeometry relative="1" as="geometry">
            <mxPoint x="590" y="1390.96" as="targetPoint" />
          </mxGeometry>
        </mxCell>
        <mxCell id="lfWD4oRQ2sTLvUU-yB0J-78" value="Validate API Keys" style="rounded=1;whiteSpace=wrap;html=1;sketch=1;hachureGap=4;jiggle=2;curveFitting=1;strokeColor=#0F8B8D;fontFamily=Architects Daughter;fontSource=https%3A%2F%2Ffonts.googleapis.com%2Fcss%3Ffamily%3DArchitects%2BDaughter;fontSize=20;fontColor=#143642;fillColor=#FAE5C7;" vertex="1" parent="1">
          <mxGeometry x="495" y="1270" width="190" height="60" as="geometry" />
        </mxCell>
        <mxCell id="lfWD4oRQ2sTLvUU-yB0J-82" style="edgeStyle=orthogonalEdgeStyle;rounded=0;sketch=1;hachureGap=4;jiggle=2;curveFitting=1;orthogonalLoop=1;jettySize=auto;html=1;entryX=0.553;entryY=0.05;entryDx=0;entryDy=0;entryPerimeter=0;strokeColor=#A8201A;fontFamily=Architects Daughter;fontSource=https%3A%2F%2Ffonts.googleapis.com%2Fcss%3Ffamily%3DArchitects%2BDaughter;fontSize=16;fontColor=#143642;fillColor=#FAE5C7;" edge="1" parent="1" target="lfWD4oRQ2sTLvUU-yB0J-78">
          <mxGeometry relative="1" as="geometry">
            <mxPoint x="600" y="1190" as="sourcePoint" />
          </mxGeometry>
        </mxCell>
        <mxCell id="lfWD4oRQ2sTLvUU-yB0J-79" value="By Field ID or by Field Boundary" style="rounded=1;whiteSpace=wrap;html=1;hachureGap=4;fontFamily=Architects Daughter;fontSource=https%3A%2F%2Ffonts.googleapis.com%2Fcss%3Ffamily%3DArchitects%2BDaughter;fontSize=20;sketch=1;curveFitting=1;jiggle=2;labelBackgroundColor=none;" vertex="1" parent="1">
          <mxGeometry x="370" y="1130" width="390" height="60" as="geometry" />
        </mxCell>
        <mxCell id="lfWD4oRQ2sTLvUU-yB0J-88" value="" style="edgeStyle=orthogonalEdgeStyle;rounded=0;sketch=1;hachureGap=4;jiggle=2;curveFitting=1;orthogonalLoop=1;jettySize=auto;html=1;strokeColor=#A8201A;fontFamily=Architects Daughter;fontSource=https%3A%2F%2Ffonts.googleapis.com%2Fcss%3Ffamily%3DArchitects%2BDaughter;fontSize=16;fontColor=#143642;fillColor=#FAE5C7;" edge="1" parent="1" target="lfWD4oRQ2sTLvUU-yB0J-87">
          <mxGeometry relative="1" as="geometry">
            <mxPoint x="400" y="1450" as="sourcePoint" />
          </mxGeometry>
        </mxCell>
        <mxCell id="lfWD4oRQ2sTLvUU-yB0J-90" value="YES" style="edgeLabel;html=1;align=center;verticalAlign=middle;resizable=0;points=[];fontSize=20;fontFamily=Architects Daughter;fontColor=#143642;" vertex="1" connectable="0" parent="lfWD4oRQ2sTLvUU-yB0J-88">
          <mxGeometry x="0.1111" y="3" relative="1" as="geometry">
            <mxPoint as="offset" />
          </mxGeometry>
        </mxCell>
        <mxCell id="lfWD4oRQ2sTLvUU-yB0J-95" value="" style="edgeStyle=orthogonalEdgeStyle;rounded=0;sketch=1;hachureGap=4;jiggle=2;curveFitting=1;orthogonalLoop=1;jettySize=auto;html=1;strokeColor=#A8201A;fontFamily=Architects Daughter;fontSource=https%3A%2F%2Ffonts.googleapis.com%2Fcss%3Ffamily%3DArchitects%2BDaughter;fontSize=16;fontColor=#143642;fillColor=#FAE5C7;" edge="1" parent="1" target="lfWD4oRQ2sTLvUU-yB0J-94">
          <mxGeometry relative="1" as="geometry">
            <mxPoint x="600" y="1510" as="sourcePoint" />
          </mxGeometry>
        </mxCell>
        <mxCell id="lfWD4oRQ2sTLvUU-yB0J-96" value="NO" style="edgeLabel;html=1;align=center;verticalAlign=middle;resizable=0;points=[];fontSize=20;fontFamily=Architects Daughter;fontColor=#143642;" vertex="1" connectable="0" parent="lfWD4oRQ2sTLvUU-yB0J-95">
          <mxGeometry x="-0.1455" relative="1" as="geometry">
            <mxPoint as="offset" />
          </mxGeometry>
        </mxCell>
        <mxCell id="lfWD4oRQ2sTLvUU-yB0J-84" value="Call Data Warehouse to view if this Requests&#39; has already requested maps/data" style="rounded=1;whiteSpace=wrap;html=1;sketch=1;hachureGap=4;jiggle=2;curveFitting=1;strokeColor=#0F8B8D;fontFamily=Architects Daughter;fontSource=https%3A%2F%2Ffonts.googleapis.com%2Fcss%3Ffamily%3DArchitects%2BDaughter;fontSize=20;fontColor=#143642;fillColor=#FAE5C7;glass=0;shadow=0;" vertex="1" parent="1">
          <mxGeometry x="365" y="1390" width="400" height="120" as="geometry" />
        </mxCell>
        <mxCell id="lfWD4oRQ2sTLvUU-yB0J-91" style="edgeStyle=orthogonalEdgeStyle;rounded=0;sketch=1;hachureGap=4;jiggle=2;curveFitting=1;orthogonalLoop=1;jettySize=auto;html=1;strokeColor=#A8201A;fontFamily=Architects Daughter;fontSource=https%3A%2F%2Ffonts.googleapis.com%2Fcss%3Ffamily%3DArchitects%2BDaughter;fontSize=16;fontColor=#143642;fillColor=#FAE5C7;entryX=0.5;entryY=1;entryDx=0;entryDy=0;" edge="1" parent="1">
          <mxGeometry relative="1" as="geometry">
            <mxPoint x="156.26" y="1190" as="targetPoint" />
            <mxPoint x="153.76" y="1410" as="sourcePoint" />
            <Array as="points">
              <mxPoint x="154" y="1200" />
              <mxPoint x="156" y="1200" />
            </Array>
          </mxGeometry>
        </mxCell>
        <mxCell id="lfWD4oRQ2sTLvUU-yB0J-92" value="Request Return&amp;nbsp;" style="edgeLabel;html=1;align=center;verticalAlign=middle;resizable=0;points=[];fontSize=20;fontFamily=Architects Daughter;fontColor=#143642;" vertex="1" connectable="0" parent="lfWD4oRQ2sTLvUU-yB0J-91">
          <mxGeometry x="-0.1734" y="2" relative="1" as="geometry">
            <mxPoint x="12" as="offset" />
          </mxGeometry>
        </mxCell>
        <mxCell id="lfWD4oRQ2sTLvUU-yB0J-87" value="Return &amp;amp; END" style="ellipse;whiteSpace=wrap;html=1;fontSize=20;fontFamily=Architects Daughter;fillColor=#f8cecc;strokeColor=#b85450;rounded=1;sketch=1;hachureGap=4;jiggle=2;curveFitting=1;fontSource=https%3A%2F%2Ffonts.googleapis.com%2Fcss%3Ffamily%3DArchitects%2BDaughter;glass=0;shadow=0;" vertex="1" parent="1">
          <mxGeometry x="115" y="1410" width="80" height="80" as="geometry" />
        </mxCell>
        <mxCell id="lfWD4oRQ2sTLvUU-yB0J-98" value="" style="edgeStyle=orthogonalEdgeStyle;rounded=0;sketch=1;hachureGap=4;jiggle=2;curveFitting=1;orthogonalLoop=1;jettySize=auto;html=1;strokeColor=#A8201A;fontFamily=Architects Daughter;fontSource=https%3A%2F%2Ffonts.googleapis.com%2Fcss%3Ffamily%3DArchitects%2BDaughter;fontSize=16;fontColor=#143642;fillColor=#FAE5C7;" edge="1" parent="1" source="lfWD4oRQ2sTLvUU-yB0J-94" target="lfWD4oRQ2sTLvUU-yB0J-97">
          <mxGeometry relative="1" as="geometry" />
        </mxCell>
        <mxCell id="lfWD4oRQ2sTLvUU-yB0J-94" value="Check the pricing and Validation" style="whiteSpace=wrap;html=1;fontSize=20;fontFamily=Architects Daughter;fillColor=#FAE5C7;strokeColor=#0F8B8D;fontColor=#143642;rounded=1;sketch=1;hachureGap=4;jiggle=2;curveFitting=1;fontSource=https%3A%2F%2Ffonts.googleapis.com%2Fcss%3Ffamily%3DArchitects%2BDaughter;glass=0;shadow=0;" vertex="1" parent="1">
          <mxGeometry x="522.5" y="1630" width="155" height="90" as="geometry" />
        </mxCell>
        <mxCell id="lfWD4oRQ2sTLvUU-yB0J-100" value="" style="edgeStyle=orthogonalEdgeStyle;rounded=0;sketch=1;hachureGap=4;jiggle=2;curveFitting=1;orthogonalLoop=1;jettySize=auto;html=1;strokeColor=#A8201A;fontFamily=Architects Daughter;fontSource=https%3A%2F%2Ffonts.googleapis.com%2Fcss%3Ffamily%3DArchitects%2BDaughter;fontSize=16;fontColor=#143642;fillColor=#FAE5C7;" edge="1" parent="1" source="lfWD4oRQ2sTLvUU-yB0J-97" target="lfWD4oRQ2sTLvUU-yB0J-99">
          <mxGeometry relative="1" as="geometry" />
        </mxCell>
        <mxCell id="lfWD4oRQ2sTLvUU-yB0J-131" value="Laravel Jobs" style="edgeLabel;html=1;align=center;verticalAlign=middle;resizable=0;points=[];fontSize=20;fontFamily=Architects Daughter;fontColor=#143642;" vertex="1" connectable="0" parent="lfWD4oRQ2sTLvUU-yB0J-100">
          <mxGeometry x="0.1806" relative="1" as="geometry">
            <mxPoint as="offset" />
          </mxGeometry>
        </mxCell>
        <mxCell id="lfWD4oRQ2sTLvUU-yB0J-97" value="Request Lambda" style="whiteSpace=wrap;html=1;fontSize=20;fontFamily=Architects Daughter;fillColor=#FAE5C7;strokeColor=#0F8B8D;fontColor=#143642;rounded=1;sketch=1;hachureGap=4;jiggle=2;curveFitting=1;fontSource=https%3A%2F%2Ffonts.googleapis.com%2Fcss%3Ffamily%3DArchitects%2BDaughter;glass=0;shadow=0;" vertex="1" parent="1">
          <mxGeometry x="540" y="1815" width="120" height="60" as="geometry" />
        </mxCell>
        <mxCell id="lfWD4oRQ2sTLvUU-yB0J-103" style="edgeStyle=orthogonalEdgeStyle;rounded=0;sketch=1;hachureGap=4;jiggle=2;curveFitting=1;orthogonalLoop=1;jettySize=auto;html=1;entryX=0.5;entryY=1;entryDx=0;entryDy=0;strokeColor=#A8201A;fontFamily=Architects Daughter;fontSource=https%3A%2F%2Ffonts.googleapis.com%2Fcss%3Ffamily%3DArchitects%2BDaughter;fontSize=16;fontColor=#143642;fillColor=#FAE5C7;" edge="1" parent="1" source="lfWD4oRQ2sTLvUU-yB0J-99" target="lfWD4oRQ2sTLvUU-yB0J-87">
          <mxGeometry relative="1" as="geometry" />
        </mxCell>
        <mxCell id="lfWD4oRQ2sTLvUU-yB0J-99" value="Process &amp;amp; Store in Data Warehouse" style="whiteSpace=wrap;html=1;fontSize=20;fontFamily=Architects Daughter;fillColor=#FAE5C7;strokeColor=#0F8B8D;fontColor=#143642;rounded=1;sketch=1;hachureGap=4;jiggle=2;curveFitting=1;fontSource=https%3A%2F%2Ffonts.googleapis.com%2Fcss%3Ffamily%3DArchitects%2BDaughter;glass=0;shadow=0;" vertex="1" parent="1">
          <mxGeometry x="80" y="1802.5" width="150" height="85" as="geometry" />
        </mxCell>
        <mxCell id="lfWD4oRQ2sTLvUU-yB0J-107" value="" style="edgeStyle=orthogonalEdgeStyle;rounded=0;sketch=1;hachureGap=4;jiggle=2;curveFitting=1;orthogonalLoop=1;jettySize=auto;html=1;strokeColor=#A8201A;fontFamily=Architects Daughter;fontSource=https%3A%2F%2Ffonts.googleapis.com%2Fcss%3Ffamily%3DArchitects%2BDaughter;fontSize=16;fontColor=#143642;fillColor=#FAE5C7;" edge="1" parent="1" source="lfWD4oRQ2sTLvUU-yB0J-109" target="lfWD4oRQ2sTLvUU-yB0J-113">
          <mxGeometry relative="1" as="geometry" />
        </mxCell>
        <mxCell id="lfWD4oRQ2sTLvUU-yB0J-108" value="Request" style="edgeLabel;html=1;align=center;verticalAlign=middle;resizable=0;points=[];fontSize=20;fontFamily=Architects Daughter;fontColor=#143642;" vertex="1" connectable="0" parent="lfWD4oRQ2sTLvUU-yB0J-107">
          <mxGeometry x="-0.1368" y="4" relative="1" as="geometry">
            <mxPoint x="29" as="offset" />
          </mxGeometry>
        </mxCell>
        <mxCell id="lfWD4oRQ2sTLvUU-yB0J-109" value="Request SPM&#39;s" style="rounded=1;whiteSpace=wrap;html=1;hachureGap=4;fontFamily=Architects Daughter;fontSource=https%3A%2F%2Ffonts.googleapis.com%2Fcss%3Ffamily%3DArchitects%2BDaughter;fontSize=20;sketch=1;curveFitting=1;jiggle=2;labelBackgroundColor=none;" vertex="1" parent="1">
          <mxGeometry x="95" y="2050" width="100" height="60" as="geometry" />
        </mxCell>
        <mxCell id="lfWD4oRQ2sTLvUU-yB0J-110" style="edgeStyle=orthogonalEdgeStyle;rounded=0;sketch=1;hachureGap=4;jiggle=2;curveFitting=1;orthogonalLoop=1;jettySize=auto;html=1;entryX=0.475;entryY=0.008;entryDx=0;entryDy=0;entryPerimeter=0;strokeColor=#A8201A;fontFamily=Architects Daughter;fontSource=https%3A%2F%2Ffonts.googleapis.com%2Fcss%3Ffamily%3DArchitects%2BDaughter;fontSize=16;fontColor=#143642;fillColor=#FAE5C7;" edge="1" parent="1" source="lfWD4oRQ2sTLvUU-yB0J-111" target="lfWD4oRQ2sTLvUU-yB0J-118">
          <mxGeometry relative="1" as="geometry" />
        </mxCell>
        <mxCell id="lfWD4oRQ2sTLvUU-yB0J-111" value="Validate API Keys" style="rounded=1;whiteSpace=wrap;html=1;sketch=1;hachureGap=4;jiggle=2;curveFitting=1;strokeColor=#0F8B8D;fontFamily=Architects Daughter;fontSource=https%3A%2F%2Ffonts.googleapis.com%2Fcss%3Ffamily%3DArchitects%2BDaughter;fontSize=20;fontColor=#143642;fillColor=#FAE5C7;" vertex="1" parent="1">
          <mxGeometry x="495" y="2190" width="190" height="60" as="geometry" />
        </mxCell>
        <mxCell id="lfWD4oRQ2sTLvUU-yB0J-112" style="edgeStyle=orthogonalEdgeStyle;rounded=0;sketch=1;hachureGap=4;jiggle=2;curveFitting=1;orthogonalLoop=1;jettySize=auto;html=1;entryX=0.553;entryY=0.05;entryDx=0;entryDy=0;entryPerimeter=0;strokeColor=#A8201A;fontFamily=Architects Daughter;fontSource=https%3A%2F%2Ffonts.googleapis.com%2Fcss%3Ffamily%3DArchitects%2BDaughter;fontSize=16;fontColor=#143642;fillColor=#FAE5C7;" edge="1" parent="1" source="lfWD4oRQ2sTLvUU-yB0J-113" target="lfWD4oRQ2sTLvUU-yB0J-111">
          <mxGeometry relative="1" as="geometry" />
        </mxCell>
        <mxCell id="lfWD4oRQ2sTLvUU-yB0J-113" value="By Field ID or by Field Boundary&lt;br&gt;By Past Months" style="rounded=1;whiteSpace=wrap;html=1;hachureGap=4;fontFamily=Architects Daughter;fontSource=https%3A%2F%2Ffonts.googleapis.com%2Fcss%3Ffamily%3DArchitects%2BDaughter;fontSize=20;sketch=1;curveFitting=1;jiggle=2;labelBackgroundColor=none;" vertex="1" parent="1">
          <mxGeometry x="405" y="2050" width="390" height="60" as="geometry" />
        </mxCell>
        <mxCell id="lfWD4oRQ2sTLvUU-yB0J-114" value="" style="edgeStyle=orthogonalEdgeStyle;rounded=0;sketch=1;hachureGap=4;jiggle=2;curveFitting=1;orthogonalLoop=1;jettySize=auto;html=1;strokeColor=#A8201A;fontFamily=Architects Daughter;fontSource=https%3A%2F%2Ffonts.googleapis.com%2Fcss%3Ffamily%3DArchitects%2BDaughter;fontSize=16;fontColor=#143642;fillColor=#FAE5C7;" edge="1" parent="1" source="lfWD4oRQ2sTLvUU-yB0J-118" target="lfWD4oRQ2sTLvUU-yB0J-121">
          <mxGeometry relative="1" as="geometry" />
        </mxCell>
        <mxCell id="lfWD4oRQ2sTLvUU-yB0J-115" value="YES" style="edgeLabel;html=1;align=center;verticalAlign=middle;resizable=0;points=[];fontSize=20;fontFamily=Architects Daughter;fontColor=#143642;" vertex="1" connectable="0" parent="lfWD4oRQ2sTLvUU-yB0J-114">
          <mxGeometry x="0.1111" y="3" relative="1" as="geometry">
            <mxPoint as="offset" />
          </mxGeometry>
        </mxCell>
        <mxCell id="lfWD4oRQ2sTLvUU-yB0J-116" value="" style="edgeStyle=orthogonalEdgeStyle;rounded=0;sketch=1;hachureGap=4;jiggle=2;curveFitting=1;orthogonalLoop=1;jettySize=auto;html=1;strokeColor=#A8201A;fontFamily=Architects Daughter;fontSource=https%3A%2F%2Ffonts.googleapis.com%2Fcss%3Ffamily%3DArchitects%2BDaughter;fontSize=16;fontColor=#143642;fillColor=#FAE5C7;" edge="1" parent="1" source="lfWD4oRQ2sTLvUU-yB0J-118" target="lfWD4oRQ2sTLvUU-yB0J-123">
          <mxGeometry relative="1" as="geometry" />
        </mxCell>
        <mxCell id="lfWD4oRQ2sTLvUU-yB0J-117" value="NO" style="edgeLabel;html=1;align=center;verticalAlign=middle;resizable=0;points=[];fontSize=20;fontFamily=Architects Daughter;fontColor=#143642;" vertex="1" connectable="0" parent="lfWD4oRQ2sTLvUU-yB0J-116">
          <mxGeometry x="-0.1455" relative="1" as="geometry">
            <mxPoint as="offset" />
          </mxGeometry>
        </mxCell>
        <mxCell id="lfWD4oRQ2sTLvUU-yB0J-118" value="Call Data Warehouse to view if this Requests&#39; has already requested maps/data" style="rounded=1;whiteSpace=wrap;html=1;sketch=1;hachureGap=4;jiggle=2;curveFitting=1;strokeColor=#0F8B8D;fontFamily=Architects Daughter;fontSource=https%3A%2F%2Ffonts.googleapis.com%2Fcss%3Ffamily%3DArchitects%2BDaughter;fontSize=20;fontColor=#143642;fillColor=#FAE5C7;glass=0;shadow=0;" vertex="1" parent="1">
          <mxGeometry x="400" y="2310" width="400" height="120" as="geometry" />
        </mxCell>
        <mxCell id="lfWD4oRQ2sTLvUU-yB0J-119" style="edgeStyle=orthogonalEdgeStyle;rounded=0;sketch=1;hachureGap=4;jiggle=2;curveFitting=1;orthogonalLoop=1;jettySize=auto;html=1;strokeColor=#A8201A;fontFamily=Architects Daughter;fontSource=https%3A%2F%2Ffonts.googleapis.com%2Fcss%3Ffamily%3DArchitects%2BDaughter;fontSize=16;fontColor=#143642;fillColor=#FAE5C7;entryX=0.6;entryY=0.983;entryDx=0;entryDy=0;entryPerimeter=0;" edge="1" parent="1" source="lfWD4oRQ2sTLvUU-yB0J-121" target="lfWD4oRQ2sTLvUU-yB0J-109">
          <mxGeometry relative="1" as="geometry">
            <mxPoint x="155" y="2120" as="targetPoint" />
          </mxGeometry>
        </mxCell>
        <mxCell id="lfWD4oRQ2sTLvUU-yB0J-120" value="Request Return&amp;nbsp;" style="edgeLabel;html=1;align=center;verticalAlign=middle;resizable=0;points=[];fontSize=20;fontFamily=Architects Daughter;fontColor=#143642;" vertex="1" connectable="0" parent="lfWD4oRQ2sTLvUU-yB0J-119">
          <mxGeometry x="-0.1734" y="2" relative="1" as="geometry">
            <mxPoint x="12" as="offset" />
          </mxGeometry>
        </mxCell>
        <mxCell id="lfWD4oRQ2sTLvUU-yB0J-121" value="Return&lt;br&gt;and END" style="ellipse;whiteSpace=wrap;html=1;fontSize=20;fontFamily=Architects Daughter;fillColor=#f8cecc;strokeColor=#b85450;rounded=1;sketch=1;hachureGap=4;jiggle=2;curveFitting=1;fontSource=https%3A%2F%2Ffonts.googleapis.com%2Fcss%3Ffamily%3DArchitects%2BDaughter;glass=0;shadow=0;" vertex="1" parent="1">
          <mxGeometry x="115" y="2330" width="80" height="80" as="geometry" />
        </mxCell>
        <mxCell id="lfWD4oRQ2sTLvUU-yB0J-122" value="" style="edgeStyle=orthogonalEdgeStyle;rounded=0;sketch=1;hachureGap=4;jiggle=2;curveFitting=1;orthogonalLoop=1;jettySize=auto;html=1;strokeColor=#A8201A;fontFamily=Architects Daughter;fontSource=https%3A%2F%2Ffonts.googleapis.com%2Fcss%3Ffamily%3DArchitects%2BDaughter;fontSize=16;fontColor=#143642;fillColor=#FAE5C7;" edge="1" parent="1" source="lfWD4oRQ2sTLvUU-yB0J-123" target="lfWD4oRQ2sTLvUU-yB0J-125">
          <mxGeometry relative="1" as="geometry" />
        </mxCell>
        <mxCell id="lfWD4oRQ2sTLvUU-yB0J-123" value="Check the pricing and Validation" style="whiteSpace=wrap;html=1;fontSize=20;fontFamily=Architects Daughter;fillColor=#FAE5C7;strokeColor=#0F8B8D;fontColor=#143642;rounded=1;sketch=1;hachureGap=4;jiggle=2;curveFitting=1;fontSource=https%3A%2F%2Ffonts.googleapis.com%2Fcss%3Ffamily%3DArchitects%2BDaughter;glass=0;shadow=0;" vertex="1" parent="1">
          <mxGeometry x="522.5" y="2550" width="155" height="90" as="geometry" />
        </mxCell>
        <mxCell id="lfWD4oRQ2sTLvUU-yB0J-124" value="" style="edgeStyle=orthogonalEdgeStyle;rounded=0;sketch=1;hachureGap=4;jiggle=2;curveFitting=1;orthogonalLoop=1;jettySize=auto;html=1;strokeColor=#A8201A;fontFamily=Architects Daughter;fontSource=https%3A%2F%2Ffonts.googleapis.com%2Fcss%3Ffamily%3DArchitects%2BDaughter;fontSize=16;fontColor=#143642;fillColor=#FAE5C7;" edge="1" parent="1" source="lfWD4oRQ2sTLvUU-yB0J-125" target="lfWD4oRQ2sTLvUU-yB0J-127">
          <mxGeometry relative="1" as="geometry" />
        </mxCell>
        <mxCell id="lfWD4oRQ2sTLvUU-yB0J-130" value="Laravel Jobs" style="edgeLabel;html=1;align=center;verticalAlign=middle;resizable=0;points=[];fontSize=20;fontFamily=Architects Daughter;fontColor=#143642;" vertex="1" connectable="0" parent="lfWD4oRQ2sTLvUU-yB0J-124">
          <mxGeometry x="-0.0452" y="-1" relative="1" as="geometry">
            <mxPoint as="offset" />
          </mxGeometry>
        </mxCell>
        <mxCell id="lfWD4oRQ2sTLvUU-yB0J-125" value="Request Lambda/s" style="whiteSpace=wrap;html=1;fontSize=20;fontFamily=Architects Daughter;fillColor=#FAE5C7;strokeColor=#0F8B8D;fontColor=#143642;rounded=1;sketch=1;hachureGap=4;jiggle=2;curveFitting=1;fontSource=https%3A%2F%2Ffonts.googleapis.com%2Fcss%3Ffamily%3DArchitects%2BDaughter;glass=0;shadow=0;" vertex="1" parent="1">
          <mxGeometry x="540" y="2735" width="120" height="60" as="geometry" />
        </mxCell>
        <mxCell id="lfWD4oRQ2sTLvUU-yB0J-126" style="edgeStyle=orthogonalEdgeStyle;rounded=0;sketch=1;hachureGap=4;jiggle=2;curveFitting=1;orthogonalLoop=1;jettySize=auto;html=1;entryX=0.5;entryY=1;entryDx=0;entryDy=0;strokeColor=#A8201A;fontFamily=Architects Daughter;fontSource=https%3A%2F%2Ffonts.googleapis.com%2Fcss%3Ffamily%3DArchitects%2BDaughter;fontSize=16;fontColor=#143642;fillColor=#FAE5C7;" edge="1" parent="1" source="lfWD4oRQ2sTLvUU-yB0J-127" target="lfWD4oRQ2sTLvUU-yB0J-121">
          <mxGeometry relative="1" as="geometry" />
        </mxCell>
        <mxCell id="lfWD4oRQ2sTLvUU-yB0J-127" value="Process &amp;amp; Store in Data Warehouse" style="whiteSpace=wrap;html=1;fontSize=20;fontFamily=Architects Daughter;fillColor=#FAE5C7;strokeColor=#0F8B8D;fontColor=#143642;rounded=1;sketch=1;hachureGap=4;jiggle=2;curveFitting=1;fontSource=https%3A%2F%2Ffonts.googleapis.com%2Fcss%3Ffamily%3DArchitects%2BDaughter;glass=0;shadow=0;" vertex="1" parent="1">
          <mxGeometry x="80" y="2722.5" width="150" height="85" as="geometry" />
        </mxCell>
        <mxCell id="lfWD4oRQ2sTLvUU-yB0J-132" value="" style="edgeStyle=orthogonalEdgeStyle;rounded=0;sketch=1;hachureGap=4;jiggle=2;curveFitting=1;orthogonalLoop=1;jettySize=auto;html=1;strokeColor=#A8201A;fontFamily=Architects Daughter;fontSource=https%3A%2F%2Ffonts.googleapis.com%2Fcss%3Ffamily%3DArchitects%2BDaughter;fontSize=16;fontColor=#143642;fillColor=#FAE5C7;" edge="1" parent="1" source="lfWD4oRQ2sTLvUU-yB0J-134" target="lfWD4oRQ2sTLvUU-yB0J-138">
          <mxGeometry relative="1" as="geometry" />
        </mxCell>
        <mxCell id="lfWD4oRQ2sTLvUU-yB0J-133" value="Request" style="edgeLabel;html=1;align=center;verticalAlign=middle;resizable=0;points=[];fontSize=20;fontFamily=Architects Daughter;fontColor=#143642;" vertex="1" connectable="0" parent="lfWD4oRQ2sTLvUU-yB0J-132">
          <mxGeometry x="-0.1368" y="4" relative="1" as="geometry">
            <mxPoint x="29" as="offset" />
          </mxGeometry>
        </mxCell>
        <mxCell id="lfWD4oRQ2sTLvUU-yB0J-134" value="Request N Rx" style="rounded=1;whiteSpace=wrap;html=1;hachureGap=4;fontFamily=Architects Daughter;fontSource=https%3A%2F%2Ffonts.googleapis.com%2Fcss%3Ffamily%3DArchitects%2BDaughter;fontSize=20;sketch=1;curveFitting=1;jiggle=2;labelBackgroundColor=none;" vertex="1" parent="1">
          <mxGeometry x="125" y="2920" width="100" height="60" as="geometry" />
        </mxCell>
        <mxCell id="lfWD4oRQ2sTLvUU-yB0J-135" style="edgeStyle=orthogonalEdgeStyle;rounded=0;sketch=1;hachureGap=4;jiggle=2;curveFitting=1;orthogonalLoop=1;jettySize=auto;html=1;entryX=0.475;entryY=0.008;entryDx=0;entryDy=0;entryPerimeter=0;strokeColor=#A8201A;fontFamily=Architects Daughter;fontSource=https%3A%2F%2Ffonts.googleapis.com%2Fcss%3Ffamily%3DArchitects%2BDaughter;fontSize=16;fontColor=#143642;fillColor=#FAE5C7;" edge="1" parent="1" source="lfWD4oRQ2sTLvUU-yB0J-136" target="lfWD4oRQ2sTLvUU-yB0J-143">
          <mxGeometry relative="1" as="geometry" />
        </mxCell>
        <mxCell id="lfWD4oRQ2sTLvUU-yB0J-136" value="Validate API Keys" style="rounded=1;whiteSpace=wrap;html=1;sketch=1;hachureGap=4;jiggle=2;curveFitting=1;strokeColor=#0F8B8D;fontFamily=Architects Daughter;fontSource=https%3A%2F%2Ffonts.googleapis.com%2Fcss%3Ffamily%3DArchitects%2BDaughter;fontSize=20;fontColor=#143642;fillColor=#FAE5C7;" vertex="1" parent="1">
          <mxGeometry x="525" y="3060" width="190" height="60" as="geometry" />
        </mxCell>
        <mxCell id="lfWD4oRQ2sTLvUU-yB0J-137" style="edgeStyle=orthogonalEdgeStyle;rounded=0;sketch=1;hachureGap=4;jiggle=2;curveFitting=1;orthogonalLoop=1;jettySize=auto;html=1;entryX=0.553;entryY=0.05;entryDx=0;entryDy=0;entryPerimeter=0;strokeColor=#A8201A;fontFamily=Architects Daughter;fontSource=https%3A%2F%2Ffonts.googleapis.com%2Fcss%3Ffamily%3DArchitects%2BDaughter;fontSize=16;fontColor=#143642;fillColor=#FAE5C7;" edge="1" parent="1" source="lfWD4oRQ2sTLvUU-yB0J-138" target="lfWD4oRQ2sTLvUU-yB0J-136">
          <mxGeometry relative="1" as="geometry" />
        </mxCell>
        <mxCell id="lfWD4oRQ2sTLvUU-yB0J-138" value="By Field ID or by Field Boundary&lt;br&gt;By Past Months" style="rounded=1;whiteSpace=wrap;html=1;hachureGap=4;fontFamily=Architects Daughter;fontSource=https%3A%2F%2Ffonts.googleapis.com%2Fcss%3Ffamily%3DArchitects%2BDaughter;fontSize=20;sketch=1;curveFitting=1;jiggle=2;labelBackgroundColor=none;" vertex="1" parent="1">
          <mxGeometry x="435" y="2920" width="390" height="60" as="geometry" />
        </mxCell>
        <mxCell id="lfWD4oRQ2sTLvUU-yB0J-139" value="" style="edgeStyle=orthogonalEdgeStyle;rounded=0;sketch=1;hachureGap=4;jiggle=2;curveFitting=1;orthogonalLoop=1;jettySize=auto;html=1;strokeColor=#A8201A;fontFamily=Architects Daughter;fontSource=https%3A%2F%2Ffonts.googleapis.com%2Fcss%3Ffamily%3DArchitects%2BDaughter;fontSize=16;fontColor=#143642;fillColor=#FAE5C7;" edge="1" parent="1" source="lfWD4oRQ2sTLvUU-yB0J-143" target="lfWD4oRQ2sTLvUU-yB0J-146">
          <mxGeometry relative="1" as="geometry" />
        </mxCell>
        <mxCell id="lfWD4oRQ2sTLvUU-yB0J-140" value="YES" style="edgeLabel;html=1;align=center;verticalAlign=middle;resizable=0;points=[];fontSize=20;fontFamily=Architects Daughter;fontColor=#143642;" vertex="1" connectable="0" parent="lfWD4oRQ2sTLvUU-yB0J-139">
          <mxGeometry x="0.1111" y="3" relative="1" as="geometry">
            <mxPoint as="offset" />
          </mxGeometry>
        </mxCell>
        <mxCell id="lfWD4oRQ2sTLvUU-yB0J-141" value="" style="edgeStyle=orthogonalEdgeStyle;rounded=0;sketch=1;hachureGap=4;jiggle=2;curveFitting=1;orthogonalLoop=1;jettySize=auto;html=1;strokeColor=#A8201A;fontFamily=Architects Daughter;fontSource=https%3A%2F%2Ffonts.googleapis.com%2Fcss%3Ffamily%3DArchitects%2BDaughter;fontSize=16;fontColor=#143642;fillColor=#FAE5C7;" edge="1" parent="1" source="lfWD4oRQ2sTLvUU-yB0J-143" target="lfWD4oRQ2sTLvUU-yB0J-148">
          <mxGeometry relative="1" as="geometry" />
        </mxCell>
        <mxCell id="lfWD4oRQ2sTLvUU-yB0J-142" value="NO" style="edgeLabel;html=1;align=center;verticalAlign=middle;resizable=0;points=[];fontSize=20;fontFamily=Architects Daughter;fontColor=#143642;" vertex="1" connectable="0" parent="lfWD4oRQ2sTLvUU-yB0J-141">
          <mxGeometry x="-0.1455" relative="1" as="geometry">
            <mxPoint as="offset" />
          </mxGeometry>
        </mxCell>
        <mxCell id="lfWD4oRQ2sTLvUU-yB0J-143" value="Call Data Warehouse to view if this Requests&#39; has already requested maps/data" style="rounded=1;whiteSpace=wrap;html=1;sketch=1;hachureGap=4;jiggle=2;curveFitting=1;strokeColor=#0F8B8D;fontFamily=Architects Daughter;fontSource=https%3A%2F%2Ffonts.googleapis.com%2Fcss%3Ffamily%3DArchitects%2BDaughter;fontSize=20;fontColor=#143642;fillColor=#FAE5C7;glass=0;shadow=0;" vertex="1" parent="1">
          <mxGeometry x="430" y="3180" width="400" height="120" as="geometry" />
        </mxCell>
        <mxCell id="lfWD4oRQ2sTLvUU-yB0J-144" style="edgeStyle=orthogonalEdgeStyle;rounded=0;sketch=1;hachureGap=4;jiggle=2;curveFitting=1;orthogonalLoop=1;jettySize=auto;html=1;strokeColor=#A8201A;fontFamily=Architects Daughter;fontSource=https%3A%2F%2Ffonts.googleapis.com%2Fcss%3Ffamily%3DArchitects%2BDaughter;fontSize=16;fontColor=#143642;fillColor=#FAE5C7;entryX=0.6;entryY=0.983;entryDx=0;entryDy=0;entryPerimeter=0;" edge="1" parent="1" source="lfWD4oRQ2sTLvUU-yB0J-146" target="lfWD4oRQ2sTLvUU-yB0J-134">
          <mxGeometry relative="1" as="geometry">
            <mxPoint x="185" y="2990" as="targetPoint" />
          </mxGeometry>
        </mxCell>
        <mxCell id="lfWD4oRQ2sTLvUU-yB0J-145" value="Request Return&amp;nbsp;" style="edgeLabel;html=1;align=center;verticalAlign=middle;resizable=0;points=[];fontSize=20;fontFamily=Architects Daughter;fontColor=#143642;" vertex="1" connectable="0" parent="lfWD4oRQ2sTLvUU-yB0J-144">
          <mxGeometry x="-0.1734" y="2" relative="1" as="geometry">
            <mxPoint x="12" as="offset" />
          </mxGeometry>
        </mxCell>
        <mxCell id="lfWD4oRQ2sTLvUU-yB0J-146" value="Return &amp;amp; END" style="ellipse;whiteSpace=wrap;html=1;fontSize=20;fontFamily=Architects Daughter;fillColor=#f8cecc;strokeColor=#b85450;rounded=1;sketch=1;hachureGap=4;jiggle=2;curveFitting=1;fontSource=https%3A%2F%2Ffonts.googleapis.com%2Fcss%3Ffamily%3DArchitects%2BDaughter;glass=0;shadow=0;" vertex="1" parent="1">
          <mxGeometry x="145" y="3200" width="80" height="80" as="geometry" />
        </mxCell>
        <mxCell id="lfWD4oRQ2sTLvUU-yB0J-147" value="" style="edgeStyle=orthogonalEdgeStyle;rounded=0;sketch=1;hachureGap=4;jiggle=2;curveFitting=1;orthogonalLoop=1;jettySize=auto;html=1;strokeColor=#A8201A;fontFamily=Architects Daughter;fontSource=https%3A%2F%2Ffonts.googleapis.com%2Fcss%3Ffamily%3DArchitects%2BDaughter;fontSize=16;fontColor=#143642;fillColor=#FAE5C7;" edge="1" parent="1" source="lfWD4oRQ2sTLvUU-yB0J-148" target="lfWD4oRQ2sTLvUU-yB0J-151">
          <mxGeometry relative="1" as="geometry" />
        </mxCell>
        <mxCell id="lfWD4oRQ2sTLvUU-yB0J-148" value="Check the pricing and Validation" style="whiteSpace=wrap;html=1;fontSize=20;fontFamily=Architects Daughter;fillColor=#FAE5C7;strokeColor=#0F8B8D;fontColor=#143642;rounded=1;sketch=1;hachureGap=4;jiggle=2;curveFitting=1;fontSource=https%3A%2F%2Ffonts.googleapis.com%2Fcss%3Ffamily%3DArchitects%2BDaughter;glass=0;shadow=0;" vertex="1" parent="1">
          <mxGeometry x="552.5" y="3420" width="155" height="90" as="geometry" />
        </mxCell>
        <mxCell id="lfWD4oRQ2sTLvUU-yB0J-149" value="" style="edgeStyle=orthogonalEdgeStyle;rounded=0;sketch=1;hachureGap=4;jiggle=2;curveFitting=1;orthogonalLoop=1;jettySize=auto;html=1;strokeColor=#A8201A;fontFamily=Architects Daughter;fontSource=https%3A%2F%2Ffonts.googleapis.com%2Fcss%3Ffamily%3DArchitects%2BDaughter;fontSize=16;fontColor=#143642;fillColor=#FAE5C7;" edge="1" parent="1" source="lfWD4oRQ2sTLvUU-yB0J-151" target="lfWD4oRQ2sTLvUU-yB0J-153">
          <mxGeometry relative="1" as="geometry" />
        </mxCell>
        <mxCell id="lfWD4oRQ2sTLvUU-yB0J-150" value="Laravel Jobs" style="edgeLabel;html=1;align=center;verticalAlign=middle;resizable=0;points=[];fontSize=20;fontFamily=Architects Daughter;fontColor=#143642;" vertex="1" connectable="0" parent="lfWD4oRQ2sTLvUU-yB0J-149">
          <mxGeometry x="-0.0452" y="-1" relative="1" as="geometry">
            <mxPoint as="offset" />
          </mxGeometry>
        </mxCell>
        <mxCell id="lfWD4oRQ2sTLvUU-yB0J-151" value="Request Lambda/s" style="whiteSpace=wrap;html=1;fontSize=20;fontFamily=Architects Daughter;fillColor=#FAE5C7;strokeColor=#0F8B8D;fontColor=#143642;rounded=1;sketch=1;hachureGap=4;jiggle=2;curveFitting=1;fontSource=https%3A%2F%2Ffonts.googleapis.com%2Fcss%3Ffamily%3DArchitects%2BDaughter;glass=0;shadow=0;" vertex="1" parent="1">
          <mxGeometry x="570" y="3605" width="120" height="60" as="geometry" />
        </mxCell>
        <mxCell id="lfWD4oRQ2sTLvUU-yB0J-152" style="edgeStyle=orthogonalEdgeStyle;rounded=0;sketch=1;hachureGap=4;jiggle=2;curveFitting=1;orthogonalLoop=1;jettySize=auto;html=1;entryX=0.5;entryY=1;entryDx=0;entryDy=0;strokeColor=#A8201A;fontFamily=Architects Daughter;fontSource=https%3A%2F%2Ffonts.googleapis.com%2Fcss%3Ffamily%3DArchitects%2BDaughter;fontSize=16;fontColor=#143642;fillColor=#FAE5C7;" edge="1" parent="1" source="lfWD4oRQ2sTLvUU-yB0J-153" target="lfWD4oRQ2sTLvUU-yB0J-146">
          <mxGeometry relative="1" as="geometry" />
        </mxCell>
        <mxCell id="lfWD4oRQ2sTLvUU-yB0J-153" value="Process &amp;amp; Store in Data Warehouse" style="whiteSpace=wrap;html=1;fontSize=20;fontFamily=Architects Daughter;fillColor=#FAE5C7;strokeColor=#0F8B8D;fontColor=#143642;rounded=1;sketch=1;hachureGap=4;jiggle=2;curveFitting=1;fontSource=https%3A%2F%2Ffonts.googleapis.com%2Fcss%3Ffamily%3DArchitects%2BDaughter;glass=0;shadow=0;" vertex="1" parent="1">
          <mxGeometry x="110" y="3592.5" width="150" height="85" as="geometry" />
        </mxCell>
        <mxCell id="lfWD4oRQ2sTLvUU-yB0J-178" value="" style="edgeStyle=orthogonalEdgeStyle;rounded=0;sketch=1;hachureGap=4;jiggle=2;curveFitting=1;orthogonalLoop=1;jettySize=auto;html=1;strokeColor=#82b366;fontFamily=Architects Daughter;fontSource=https%3A%2F%2Ffonts.googleapis.com%2Fcss%3Ffamily%3DArchitects%2BDaughter;fontSize=16;fontColor=#143642;fillColor=#d5e8d4;" edge="1" parent="1" source="lfWD4oRQ2sTLvUU-yB0J-156" target="lfWD4oRQ2sTLvUU-yB0J-177">
          <mxGeometry relative="1" as="geometry" />
        </mxCell>
        <mxCell id="lfWD4oRQ2sTLvUU-yB0J-156" value="Request Shared Services&amp;nbsp;&lt;br&gt;1. Classification&lt;br&gt;2. Dose Rate&lt;br&gt;3. ISOBUS&lt;br&gt;4. PDF&lt;br&gt;5. Checkpoint&#39;s&amp;nbsp;" style="rounded=1;whiteSpace=wrap;html=1;hachureGap=4;fontFamily=Architects Daughter;fontSource=https%3A%2F%2Ffonts.googleapis.com%2Fcss%3Ffamily%3DArchitects%2BDaughter;fontSize=20;sketch=1;curveFitting=1;jiggle=2;labelBackgroundColor=none;fillColor=#d5e8d4;strokeColor=#82b366;" vertex="1" parent="1">
          <mxGeometry x="-470" y="1340" width="320" height="160" as="geometry" />
        </mxCell>
        <mxCell id="lfWD4oRQ2sTLvUU-yB0J-180" value="" style="edgeStyle=orthogonalEdgeStyle;rounded=0;sketch=1;hachureGap=4;jiggle=2;curveFitting=1;orthogonalLoop=1;jettySize=auto;html=1;strokeColor=#82b366;fontFamily=Architects Daughter;fontSource=https%3A%2F%2Ffonts.googleapis.com%2Fcss%3Ffamily%3DArchitects%2BDaughter;fontSize=16;fontColor=#143642;fillColor=#d5e8d4;" edge="1" parent="1" source="lfWD4oRQ2sTLvUU-yB0J-177" target="lfWD4oRQ2sTLvUU-yB0J-179">
          <mxGeometry relative="1" as="geometry" />
        </mxCell>
        <mxCell id="lfWD4oRQ2sTLvUU-yB0J-177" value="Mpa UUIDS" style="rounded=1;whiteSpace=wrap;html=1;hachureGap=4;fontFamily=Architects Daughter;fontSource=https%3A%2F%2Ffonts.googleapis.com%2Fcss%3Ffamily%3DArchitects%2BDaughter;fontSize=20;sketch=1;curveFitting=1;jiggle=2;labelBackgroundColor=none;fillColor=#d5e8d4;strokeColor=#82b366;" vertex="1" parent="1">
          <mxGeometry x="-470" y="1580" width="320" height="60" as="geometry" />
        </mxCell>
        <mxCell id="lfWD4oRQ2sTLvUU-yB0J-182" value="" style="edgeStyle=orthogonalEdgeStyle;rounded=0;sketch=1;hachureGap=4;jiggle=2;curveFitting=1;orthogonalLoop=1;jettySize=auto;html=1;strokeColor=#82b366;fontFamily=Architects Daughter;fontSource=https%3A%2F%2Ffonts.googleapis.com%2Fcss%3Ffamily%3DArchitects%2BDaughter;fontSize=16;fontColor=#143642;fillColor=#d5e8d4;" edge="1" parent="1" source="lfWD4oRQ2sTLvUU-yB0J-179" target="lfWD4oRQ2sTLvUU-yB0J-181">
          <mxGeometry relative="1" as="geometry" />
        </mxCell>
        <mxCell id="lfWD4oRQ2sTLvUU-yB0J-179" value="Data WareHouse&amp;nbsp; Check" style="whiteSpace=wrap;html=1;fontSize=20;fontFamily=Architects Daughter;rounded=1;hachureGap=4;fontSource=https%3A%2F%2Ffonts.googleapis.com%2Fcss%3Ffamily%3DArchitects%2BDaughter;sketch=1;curveFitting=1;jiggle=2;labelBackgroundColor=none;fillColor=#d5e8d4;strokeColor=#82b366;" vertex="1" parent="1">
          <mxGeometry x="-385" y="1730" width="150" height="120" as="geometry" />
        </mxCell>
        <mxCell id="lfWD4oRQ2sTLvUU-yB0J-184" value="" style="edgeStyle=orthogonalEdgeStyle;rounded=0;sketch=1;hachureGap=4;jiggle=2;curveFitting=1;orthogonalLoop=1;jettySize=auto;html=1;strokeColor=#82b366;fontFamily=Architects Daughter;fontSource=https%3A%2F%2Ffonts.googleapis.com%2Fcss%3Ffamily%3DArchitects%2BDaughter;fontSize=16;fontColor=#143642;fillColor=#d5e8d4;" edge="1" parent="1" source="lfWD4oRQ2sTLvUU-yB0J-181" target="lfWD4oRQ2sTLvUU-yB0J-183">
          <mxGeometry relative="1" as="geometry" />
        </mxCell>
        <mxCell id="lfWD4oRQ2sTLvUU-yB0J-181" value="Call Lambda" style="whiteSpace=wrap;html=1;fontSize=20;fontFamily=Architects Daughter;rounded=1;hachureGap=4;fontSource=https%3A%2F%2Ffonts.googleapis.com%2Fcss%3Ffamily%3DArchitects%2BDaughter;sketch=1;curveFitting=1;jiggle=2;labelBackgroundColor=none;fillColor=#d5e8d4;strokeColor=#82b366;" vertex="1" parent="1">
          <mxGeometry x="-370" y="1960" width="120" height="60" as="geometry" />
        </mxCell>
        <mxCell id="lfWD4oRQ2sTLvUU-yB0J-187" value="" style="edgeStyle=orthogonalEdgeStyle;rounded=0;sketch=1;hachureGap=4;jiggle=2;curveFitting=1;orthogonalLoop=1;jettySize=auto;html=1;strokeColor=#82b366;fontFamily=Architects Daughter;fontSource=https%3A%2F%2Ffonts.googleapis.com%2Fcss%3Ffamily%3DArchitects%2BDaughter;fontSize=16;fontColor=#143642;fillColor=#d5e8d4;" edge="1" parent="1" source="lfWD4oRQ2sTLvUU-yB0J-183" target="lfWD4oRQ2sTLvUU-yB0J-186">
          <mxGeometry relative="1" as="geometry" />
        </mxCell>
        <mxCell id="lfWD4oRQ2sTLvUU-yB0J-188" style="edgeStyle=orthogonalEdgeStyle;rounded=0;sketch=1;hachureGap=4;jiggle=2;curveFitting=1;orthogonalLoop=1;jettySize=auto;html=1;strokeColor=#82b366;fontFamily=Architects Daughter;fontSource=https%3A%2F%2Ffonts.googleapis.com%2Fcss%3Ffamily%3DArchitects%2BDaughter;fontSize=16;fontColor=#143642;fillColor=#d5e8d4;entryX=0.5;entryY=1;entryDx=0;entryDy=0;endArrow=classic;endFill=1;" edge="1" parent="1" source="lfWD4oRQ2sTLvUU-yB0J-183" target="lfWD4oRQ2sTLvUU-yB0J-189">
          <mxGeometry relative="1" as="geometry">
            <mxPoint x="-570" y="2060" as="targetPoint" />
          </mxGeometry>
        </mxCell>
        <mxCell id="lfWD4oRQ2sTLvUU-yB0J-183" value="Process" style="rhombus;whiteSpace=wrap;html=1;fontSize=20;fontFamily=Architects Daughter;rounded=1;hachureGap=4;fontSource=https%3A%2F%2Ffonts.googleapis.com%2Fcss%3Ffamily%3DArchitects%2BDaughter;sketch=1;curveFitting=1;jiggle=2;labelBackgroundColor=none;fillColor=#d5e8d4;strokeColor=#82b366;" vertex="1" parent="1">
          <mxGeometry x="-375" y="2100" width="130" height="100" as="geometry" />
        </mxCell>
        <mxCell id="lfWD4oRQ2sTLvUU-yB0J-192" value="" style="edgeStyle=orthogonalEdgeStyle;rounded=0;sketch=1;hachureGap=4;jiggle=2;curveFitting=1;orthogonalLoop=1;jettySize=auto;html=1;strokeColor=#A8201A;fontFamily=Architects Daughter;fontSource=https%3A%2F%2Ffonts.googleapis.com%2Fcss%3Ffamily%3DArchitects%2BDaughter;fontSize=16;fontColor=#143642;fillColor=#FAE5C7;" edge="1" parent="1" source="lfWD4oRQ2sTLvUU-yB0J-186" target="lfWD4oRQ2sTLvUU-yB0J-191">
          <mxGeometry relative="1" as="geometry" />
        </mxCell>
        <mxCell id="lfWD4oRQ2sTLvUU-yB0J-186" value="Return" style="ellipse;whiteSpace=wrap;html=1;fontSize=20;fontFamily=Architects Daughter;rounded=1;hachureGap=4;fontSource=https%3A%2F%2Ffonts.googleapis.com%2Fcss%3Ffamily%3DArchitects%2BDaughter;sketch=1;curveFitting=1;jiggle=2;labelBackgroundColor=none;fillColor=#d5e8d4;strokeColor=#82b366;" vertex="1" parent="1">
          <mxGeometry x="-350" y="2290" width="80" height="80" as="geometry" />
        </mxCell>
        <mxCell id="lfWD4oRQ2sTLvUU-yB0J-190" style="edgeStyle=orthogonalEdgeStyle;rounded=0;sketch=1;hachureGap=4;jiggle=2;curveFitting=1;orthogonalLoop=1;jettySize=auto;html=1;entryX=0;entryY=0.5;entryDx=0;entryDy=0;strokeColor=#82b366;fontFamily=Architects Daughter;fontSource=https%3A%2F%2Ffonts.googleapis.com%2Fcss%3Ffamily%3DArchitects%2BDaughter;fontSize=16;fontColor=#143642;fillColor=#d5e8d4;" edge="1" parent="1" source="lfWD4oRQ2sTLvUU-yB0J-189" target="lfWD4oRQ2sTLvUU-yB0J-179">
          <mxGeometry relative="1" as="geometry">
            <Array as="points">
              <mxPoint x="-570" y="1790" />
            </Array>
          </mxGeometry>
        </mxCell>
        <mxCell id="lfWD4oRQ2sTLvUU-yB0J-189" value="Warehouse Store&amp;nbsp;" style="rounded=0;whiteSpace=wrap;html=1;sketch=1;hachureGap=4;jiggle=2;curveFitting=1;strokeColor=#82b366;fontFamily=Architects Daughter;fontSource=https%3A%2F%2Ffonts.googleapis.com%2Fcss%3Ffamily%3DArchitects%2BDaughter;fontSize=20;fillColor=#d5e8d4;" vertex="1" parent="1">
          <mxGeometry x="-630" y="1950" width="120" height="60" as="geometry" />
        </mxCell>
        <mxCell id="lfWD4oRQ2sTLvUU-yB0J-191" value="END" style="ellipse;whiteSpace=wrap;html=1;fontSize=20;fontFamily=Architects Daughter;rounded=1;hachureGap=4;fontSource=https%3A%2F%2Ffonts.googleapis.com%2Fcss%3Ffamily%3DArchitects%2BDaughter;sketch=1;curveFitting=1;jiggle=2;labelBackgroundColor=none;fillColor=#f8cecc;strokeColor=#b85450;" vertex="1" parent="1">
          <mxGeometry x="-350" y="2450" width="80" height="80" as="geometry" />
        </mxCell>
      </root>
    </mxGraphModel>
  </diagram>
</mxfile>
